<svg aria-hidden="true" style="position: absolute; width: 0; height: 0; overflow: hidden;" version="1.1" xmlns="http://www.w3.org/2000/svg" xmlns:xlink="http://www.w3.org/1999/xlink">
<defs>
<symbol id="icon-bg-dots" viewBox="0 0 2240 32">
<title>bg-dots</title>
<path fill="#495dcf" style="fill: var(--color1, #495dcf)" opacity="0.2" d="M0 32c-8.837 0-16-7.163-16-16s7.163-16 16-16v0c8.837 0 16 7.163 16 16s-7.163 16-16 16v0zM2240 32c-8.837 0-16-7.163-16-16s7.163-16 16-16v0c8.837 0 16 7.163 16 16s-7.163 16-16 16v0zM2104 32c-8.837 0-16-7.163-16-16s7.163-16 16-16v0c8.837 0 16 7.163 16 16s-7.163 16-16 16v0zM1824 32c-8.837 0-16-7.163-16-16s7.163-16 16-16v0c8.837 0 16 7.163 16 16s-7.163 16-16 16v0zM1544 32c-8.837 0-16-7.163-16-16s7.163-16 16-16v0c8.837 0 16 7.163 16 16s-7.163 16-16 16v0zM1264 32c-8.837 0-16-7.163-16-16s7.163-16 16-16v0c8.837 0 16 7.163 16 16s-7.163 16-16 16v0zM1120 32c-8.837 0-16-7.163-16-16s7.163-16 16-16v0c8.837 0 16 7.163 16 16s-7.163 16-16 16v0zM984 32c-8.837 0-16-7.163-16-16s7.163-16 16-16v0c8.837 0 16 7.163 16 16s-7.163 16-16 16v0zM1960 32c-8.837 0-16-7.163-16-16s7.163-16 16-16v0c8.837 0 16 7.163 16 16s-7.163 16-16 16v0zM1680 32c-8.837 0-16-7.163-16-16s7.163-16 16-16v0c8.837 0 16 7.163 16 16s-7.163 16-16 16v0zM1400 32c-8.837 0-16-7.163-16-16s7.163-16 16-16v0c8.837 0 16 7.163 16 16s-7.163 16-16 16v0zM840 32c-8.837 0-16-7.163-16-16s7.163-16 16-16v0c8.837 0 16 7.163 16 16s-7.163 16-16 16v0zM704 32c-8.837 0-16-7.163-16-16s7.163-16 16-16v0c8.837 0 16 7.163 16 16s-7.163 16-16 16v0zM560 32c-8.837 0-16-7.163-16-16s7.163-16 16-16v0c8.837 0 16 7.163 16 16s-7.163 16-16 16v0zM424 32c-8.837 0-16-7.163-16-16s7.163-16 16-16v0c8.837 0 16 7.163 16 16s-7.163 16-16 16v0zM280 32c-8.837 0-16-7.163-16-16s7.163-16 16-16v0c8.837 0 16 7.163 16 16s-7.163 16-16 16v0zM144 32c-8.837 0-16-7.163-16-16s7.163-16 16-16v0c8.837 0 16 7.163 16 16s-7.163 16-16 16v0z"></path>
</symbol>
<symbol id="icon-icon-arrow" viewBox="0 0 48 32">
<title>icon-arrow</title>
<path fill="none" stroke="#5267df" style="stroke: var(--color2, #5267df)" stroke-linejoin="miter" stroke-linecap="butt" stroke-miterlimit="4" stroke-width="8" d="M2.667 2.667l21.333 21.333 21.333-21.333"></path>
</symbol>
<symbol id="icon-icon-close" viewBox="0 0 34 32">
<title>icon-close</title>
<path fill="#fff" style="fill: var(--color3, #fff)" d="M17.067 11.475l11.313-11.315 4.527 4.527-11.317 11.313 11.315 11.313-4.527 4.527-11.311-11.317-11.313 11.315-4.527-4.527 11.317-11.311-11.317-11.313 4.527-4.527 11.313 11.317z"></path>
</symbol>
<symbol id="icon-icon-facebook" viewBox="0 0 32 32">
<title>icon-facebook</title>
<path fill="#fff" style="fill: var(--color3, #fff)" d="M30.233 0h-28.467c-0.976 0-1.767 0.791-1.767 1.767v28.468c0 0.975 0.791 1.765 1.767 1.765h15.327v-12.392h-4.171v-4.829h4.171v-3.561c0-4.133 2.524-6.384 6.212-6.384 1.767 0 3.284 0.132 3.727 0.191v4.32l-2.557 0.001c-2.005 0-2.393 0.953-2.393 2.351v3.084h4.783l-0.623 4.829h-4.16v12.391h8.155c0.973 0 1.764-0.791 1.764-1.767v-28.467c0-0.976-0.791-1.767-1.767-1.767z"></path>
</symbol>
<symbol id="icon-icon-hamburger" viewBox="0 0 38 32">
<title>icon-hamburger</title>
<path d="M0 0h38.4v6.4h-38.4v-6.4zM0 12.8h38.4v6.4h-38.4v-6.4zM0 25.6h38.4v6.4h-38.4v-6.4z"></path>
</symbol>
<symbol id="icon-icon-twitter" viewBox="0 0 38 32">
<title>icon-twitter</title>
<path fill="#fff" style="fill: var(--color3, #fff)" d="M38.4 4.091c-1.318 0.6-2.846 1.037-4.449 1.232l-0.076 0.008c1.63-0.986 2.855-2.501 3.448-4.303l0.016-0.056c-1.44 0.87-3.116 1.533-4.902 1.895l-0.101 0.017c-1.439-1.533-3.478-2.488-5.74-2.488-0.004 0-0.007 0-0.011 0h0.001c-5.086 0-8.824 4.746-7.675 9.672-6.562-0.338-12.335-3.457-16.205-8.19l-0.032-0.040c-0.671 1.135-1.067 2.502-1.067 3.961 0 2.722 1.379 5.122 3.476 6.539l0.028 0.018c-1.316-0.043-2.538-0.403-3.606-1.006l0.039 0.020c-0.086 3.65 2.53 7.064 6.318 7.824-0.621 0.175-1.333 0.276-2.070 0.276-0.527 0-1.041-0.052-1.539-0.15l0.050 0.008c1.037 3.155 3.927 5.405 7.352 5.47l0.008 0c-2.664 2.105-6.072 3.377-9.776 3.377-0.665 0-1.321-0.041-1.965-0.121l0.077 0.008c3.408 2.219 7.578 3.539 12.056 3.539 0.007 0 0.014 0 0.022 0h-0.001c14.627 0 22.891-12.354 22.392-23.434 1.548-1.128 2.852-2.479 3.895-4.022l0.036-0.057z"></path>
</symbol>
<symbol id="icon-illustration-features-tab-1" viewBox="0 0 50 32">
<title>illustration-features-tab-1</title>
<path fill="#e8eaf6" style="fill: var(--color4, #e8eaf6)" d="M0.74 0h48.093c0.409 0 0.74 0.331 0.74 0.74v30.52c0 0.409-0.331 0.74-0.74 0.74h-48.093c-0.409 0-0.74-0.331-0.74-0.74v-30.52c0-0.409 0.331-0.74 0.74-0.74z"></path>
<path fill="#242a45" style="fill: var(--color5, #242a45)" d="M-0.326 0.018h50.59v5.457h-50.59z"></path>
<path fill="#fff" style="fill: var(--color3, #fff)" opacity="0.245" d="M5.038 2.793c0 0.817-0.662 1.48-1.48 1.48s-1.48-0.663-1.48-1.48c0-0.817 0.663-1.48 1.48-1.48s1.48 0.662 1.48 1.48z"></path>
<path fill="#fff" style="fill: var(--color3, #fff)" opacity="0.104" d="M47.674 2.793c0 0.817-0.663 1.48-1.48 1.48s-1.48-0.663-1.48-1.48c0-0.817 0.663-1.48 1.48-1.48s1.48 0.662 1.48 1.48z"></path>
<path fill="#fff" style="fill: var(--color3, #fff)" opacity="0.75" d="M6.702 1.868h10.543c0.153 0 0.277 0.124 0.277 0.277s-0.124 0.277-0.277 0.277h-10.543c-0.153 0-0.277-0.124-0.277-0.277s0.124-0.277 0.277-0.277z"></path>
<path fill="#fff" style="fill: var(--color3, #fff)" opacity="0.25" d="M6.702 3.163h5.364c0.153 0 0.277 0.124 0.277 0.277s-0.124 0.277-0.277 0.277h-5.364c-0.153 0-0.277-0.124-0.277-0.277s0.124-0.277 0.277-0.277z"></path>
<path fill="#fff" style="fill: var(--color3, #fff)" d="M6.012 8.601h22.659c0.409 0 0.74 0.331 0.74 0.74v27.746c0 0.409-0.331 0.74-0.74 0.74h-22.659c-0.409 0-0.74-0.331-0.74-0.74v-27.746c0-0.409 0.331-0.74 0.74-0.74z"></path>
<path fill="#fff" style="fill: var(--color3, #fff)" d="M33.295 8.601h10.358c0.409 0 0.74 0.331 0.74 0.74v27.746c0 0.409-0.331 0.74-0.74 0.74h-10.358c-0.409 0-0.74-0.331-0.74-0.74v-27.746c0-0.409 0.331-0.74 0.74-0.74z"></path>
<path fill="#242a45" style="fill: var(--color5, #242a45)" opacity="0.5" d="M12.806 12.134h10.543c0.153 0 0.277 0.124 0.277 0.277s-0.124 0.277-0.277 0.277h-10.543c-0.153 0-0.277-0.124-0.277-0.277s0.124-0.277 0.277-0.277z"></path>
<path fill="#f98e5d" style="fill: var(--color6, #f98e5d)" d="M11.142 13.059c0 0.817-0.662 1.48-1.48 1.48s-1.48-0.662-1.48-1.48c0-0.817 0.662-1.48 1.48-1.48s1.48 0.662 1.48 1.48z"></path>
<path fill="#242a45" style="fill: var(--color5, #242a45)" opacity="0.25" d="M34.726 10.654h7.584c0.153 0 0.277 0.124 0.277 0.277s-0.124 0.277-0.277 0.277h-7.584c-0.153 0-0.277-0.124-0.277-0.277s0.124-0.277 0.277-0.277z"></path>
<path fill="#242a45" style="fill: var(--color5, #242a45)" opacity="0.25" d="M34.726 12.504h7.584c0.153 0 0.277 0.124 0.277 0.277s-0.124 0.277-0.277 0.277h-7.584c-0.153 0-0.277-0.124-0.277-0.277s0.124-0.277 0.277-0.277z"></path>
<path fill="#242a45" style="fill: var(--color5, #242a45)" opacity="0.25" d="M34.726 14.353h7.584c0.153 0 0.277 0.124 0.277 0.277s-0.124 0.277-0.277 0.277h-7.584c-0.153 0-0.277-0.124-0.277-0.277s0.124-0.277 0.277-0.277z"></path>
<path fill="#242a45" style="fill: var(--color5, #242a45)" opacity="0.25" d="M34.726 16.203h7.584c0.153 0 0.277 0.124 0.277 0.277s-0.124 0.277-0.277 0.277h-7.584c-0.153 0-0.277-0.124-0.277-0.277s0.124-0.277 0.277-0.277z"></path>
<path fill="#242a45" style="fill: var(--color5, #242a45)" opacity="0.25" d="M34.726 19.348h7.584c0.153 0 0.277 0.124 0.277 0.277s-0.124 0.277-0.277 0.277h-7.584c-0.153 0-0.277-0.124-0.277-0.277s0.124-0.277 0.277-0.277z"></path>
<path fill="#242a45" style="fill: var(--color5, #242a45)" opacity="0.25" d="M34.726 21.197h7.584c0.153 0 0.277 0.124 0.277 0.277s-0.124 0.277-0.277 0.277h-7.584c-0.153 0-0.277-0.124-0.277-0.277s0.124-0.277 0.277-0.277z"></path>
<path fill="#242a45" style="fill: var(--color5, #242a45)" opacity="0.25" d="M34.726 23.047h7.584c0.153 0 0.277 0.124 0.277 0.277s-0.124 0.277-0.277 0.277h-7.584c-0.153 0-0.277-0.124-0.277-0.277s0.124-0.277 0.277-0.277z"></path>
<path fill="#242a45" style="fill: var(--color5, #242a45)" opacity="0.25" d="M12.806 13.429h5.364c0.153 0 0.277 0.124 0.277 0.277s-0.124 0.277-0.277 0.277h-5.364c-0.153 0-0.277-0.124-0.277-0.277s0.124-0.277 0.277-0.277z"></path>
<path fill="#6ac6d6" style="fill: var(--color7, #6ac6d6)" d="M11.142 18.238c0 0.817-0.662 1.48-1.48 1.48s-1.48-0.663-1.48-1.48c0-0.817 0.662-1.48 1.48-1.48s1.48 0.663 1.48 1.48z"></path>
<path fill="#242a45" style="fill: var(--color5, #242a45)" opacity="0.5" d="M12.806 17.313h10.543c0.153 0 0.277 0.124 0.277 0.277s-0.124 0.277-0.277 0.277h-10.543c-0.153 0-0.277-0.124-0.277-0.277s0.124-0.277 0.277-0.277z"></path>
<path fill="#242a45" style="fill: var(--color5, #242a45)" opacity="0.25" d="M12.806 18.608h5.364c0.153 0 0.277 0.124 0.277 0.277s-0.124 0.277-0.277 0.277h-5.364c-0.153 0-0.277-0.124-0.277-0.277s0.124-0.277 0.277-0.277z"></path>
<path fill="#a47ed4" style="fill: var(--color8, #a47ed4)" d="M11.142 23.417c0 0.817-0.662 1.48-1.48 1.48s-1.48-0.663-1.48-1.48c0-0.817 0.662-1.48 1.48-1.48s1.48 0.663 1.48 1.48z"></path>
<path fill="#242a45" style="fill: var(--color5, #242a45)" opacity="0.5" d="M12.806 22.492h10.543c0.153 0 0.277 0.124 0.277 0.277s-0.124 0.277-0.277 0.277h-10.543c-0.153 0-0.277-0.124-0.277-0.277s0.124-0.277 0.277-0.277z"></path>
<path fill="#242a45" style="fill: var(--color5, #242a45)" opacity="0.25" d="M12.806 23.787h5.364c0.153 0 0.277 0.124 0.277 0.277s-0.124 0.277-0.277 0.277h-5.364c-0.153 0-0.277-0.124-0.277-0.277s0.124-0.277 0.277-0.277z"></path>
<path fill="#ec7878" style="fill: var(--color9, #ec7878)" d="M11.142 28.596c0 0.817-0.662 1.48-1.48 1.48s-1.48-0.663-1.48-1.48c0-0.817 0.662-1.48 1.48-1.48s1.48 0.663 1.48 1.48z"></path>
<path fill="#242a45" style="fill: var(--color5, #242a45)" opacity="0.5" d="M12.806 27.671h10.543c0.153 0 0.277 0.124 0.277 0.277s-0.124 0.277-0.277 0.277h-10.543c-0.153 0-0.277-0.124-0.277-0.277s0.124-0.277 0.277-0.277z"></path>
<path fill="#242a45" style="fill: var(--color5, #242a45)" opacity="0.25" d="M12.806 28.966h5.364c0.153 0 0.277 0.124 0.277 0.277s-0.124 0.277-0.277 0.277h-5.364c-0.153 0-0.277-0.124-0.277-0.277s0.124-0.277 0.277-0.277z"></path>
</symbol>
<symbol id="icon-illustration-features-tab-2" viewBox="0 0 37 32">
<title>illustration-features-tab-2</title>
<path fill="#e8eaf6" style="fill: var(--color4, #e8eaf6)" d="M0.615 0h25.692c0.34 0 0.615 0.276 0.615 0.615v25.385c0 0.34-0.276 0.615-0.615 0.615h-25.692c-0.34 0-0.615-0.276-0.615-0.615v-25.385c0-0.34 0.276-0.615 0.615-0.615z"></path>
<path fill="#242a45" style="fill: var(--color5, #242a45)" d="M-0.272 0.015h42.077v4.538h-42.077z"></path>
<path fill="#fff" style="fill: var(--color3, #fff)" opacity="0.245" d="M4.19 2.323c0 0.68-0.551 1.231-1.231 1.231s-1.231-0.551-1.231-1.231c0-0.68 0.551-1.231 1.231-1.231s1.231 0.551 1.231 1.231z"></path>
<path fill="#fff" style="fill: var(--color3, #fff)" opacity="0.75" d="M5.575 1.554h8.769c0.127 0 0.231 0.103 0.231 0.231s-0.103 0.231-0.231 0.231h-8.769c-0.127 0-0.231-0.103-0.231-0.231s0.103-0.231 0.231-0.231z"></path>
<path fill="#fff" style="fill: var(--color3, #fff)" opacity="0.25" d="M5.575 2.631h4.462c0.127 0 0.231 0.103 0.231 0.231s-0.103 0.231-0.231 0.231h-4.462c-0.127 0-0.231-0.103-0.231-0.231s0.103-0.231 0.231-0.231z"></path>
<path fill="#000" style="fill: var(--color10, #000)" d="M2.692 10.615h14.154c0.34 0 0.615 0.276 0.615 0.615v18.385c0 0.34-0.276 0.615-0.615 0.615h-14.154c-0.34 0-0.615-0.276-0.615-0.615v-18.385c0-0.34 0.276-0.615 0.615-0.615z"></path>
<path fill="#fff" style="fill: var(--color3, #fff)" d="M2.692 10.615h14.154c0.34 0 0.615 0.276 0.615 0.615v18.385c0 0.34-0.276 0.615-0.615 0.615h-14.154c-0.34 0-0.615-0.276-0.615-0.615v-18.385c0-0.34 0.276-0.615 0.615-0.615z"></path>
<path fill="#242a45" style="fill: var(--color5, #242a45)" opacity="0.5" d="M7.591 13.308h7.332c0.127 0 0.231 0.103 0.231 0.231s-0.103 0.231-0.231 0.231h-7.332c-0.127 0-0.231-0.103-0.231-0.231s0.103-0.231 0.231-0.231z"></path>
<path fill="#5267df" style="fill: var(--color2, #5267df)" d="M6.308 14.077c0 0.68-0.551 1.231-1.231 1.231s-1.231-0.551-1.231-1.231c0-0.68 0.551-1.231 1.231-1.231s1.231 0.551 1.231 1.231z"></path>
<path fill="#242a45" style="fill: var(--color5, #242a45)" opacity="0.25" d="M7.591 14.385h3.695c0.127 0 0.231 0.103 0.231 0.231s-0.103 0.231-0.231 0.231h-3.695c-0.127 0-0.231-0.103-0.231-0.231s0.103-0.231 0.231-0.231z"></path>
<path fill="#5267df" style="fill: var(--color2, #5267df)" d="M6.308 18.385c0 0.68-0.551 1.231-1.231 1.231s-1.231-0.551-1.231-1.231c0-0.68 0.551-1.231 1.231-1.231s1.231 0.551 1.231 1.231z"></path>
<path fill="#242a45" style="fill: var(--color5, #242a45)" opacity="0.5" d="M7.591 17.615h7.332c0.127 0 0.231 0.103 0.231 0.231s-0.103 0.231-0.231 0.231h-7.332c-0.127 0-0.231-0.103-0.231-0.231s0.103-0.231 0.231-0.231z"></path>
<path fill="#242a45" style="fill: var(--color5, #242a45)" opacity="0.25" d="M7.591 18.692h3.695c0.127 0 0.231 0.103 0.231 0.231s-0.103 0.231-0.231 0.231h-3.695c-0.127 0-0.231-0.103-0.231-0.231s0.103-0.231 0.231-0.231z"></path>
<path fill="#5267df" style="fill: var(--color2, #5267df)" d="M6.308 22.692c0 0.68-0.551 1.231-1.231 1.231s-1.231-0.551-1.231-1.231c0-0.68 0.551-1.231 1.231-1.231s1.231 0.551 1.231 1.231z"></path>
<path fill="#242a45" style="fill: var(--color5, #242a45)" opacity="0.5" d="M7.591 21.923h7.332c0.127 0 0.231 0.103 0.231 0.231s-0.103 0.231-0.231 0.231h-7.332c-0.127 0-0.231-0.103-0.231-0.231s0.103-0.231 0.231-0.231z"></path>
<path fill="#242a45" style="fill: var(--color5, #242a45)" opacity="0.25" d="M7.591 23h3.695c0.127 0 0.231 0.103 0.231 0.231s-0.103 0.231-0.231 0.231h-3.695c-0.127 0-0.231-0.103-0.231-0.231s0.103-0.231 0.231-0.231z"></path>
<path fill="#5267df" style="fill: var(--color2, #5267df)" d="M6.308 27c0 0.68-0.551 1.231-1.231 1.231s-1.231-0.551-1.231-1.231c0-0.68 0.551-1.231 1.231-1.231s1.231 0.551 1.231 1.231z"></path>
<path fill="#242a45" style="fill: var(--color5, #242a45)" opacity="0.5" d="M7.591 26.231h7.332c0.127 0 0.231 0.103 0.231 0.231s-0.103 0.231-0.231 0.231h-7.332c-0.127 0-0.231-0.103-0.231-0.231s0.103-0.231 0.231-0.231z"></path>
<path fill="#242a45" style="fill: var(--color5, #242a45)" opacity="0.25" d="M7.591 27.308h3.695c0.127 0 0.231 0.103 0.231 0.231s-0.103 0.231-0.231 0.231h-3.695c-0.127 0-0.231-0.103-0.231-0.231s0.103-0.231 0.231-0.231z"></path>
<path fill="#000" style="fill: var(--color10, #000)" d="M19.923 10.615h14.154c0.34 0 0.615 0.276 0.615 0.615v18.385c0 0.34-0.276 0.615-0.615 0.615h-14.154c-0.34 0-0.615-0.276-0.615-0.615v-18.385c0-0.34 0.276-0.615 0.615-0.615z"></path>
<path fill="#fff" style="fill: var(--color3, #fff)" d="M19.923 10.615h14.154c0.34 0 0.615 0.276 0.615 0.615v18.385c0 0.34-0.276 0.615-0.615 0.615h-14.154c-0.34 0-0.615-0.276-0.615-0.615v-18.385c0-0.34 0.276-0.615 0.615-0.615z"></path>
<path fill="#242a45" style="fill: var(--color5, #242a45)" opacity="0.5" d="M24.822 13.308h7.332c0.127 0 0.231 0.103 0.231 0.231s-0.103 0.231-0.231 0.231h-7.332c-0.127 0-0.231-0.103-0.231-0.231s0.103-0.231 0.231-0.231z"></path>
<path fill="#5267df" style="fill: var(--color2, #5267df)" d="M23.538 14.077c0 0.68-0.551 1.231-1.231 1.231s-1.231-0.551-1.231-1.231c0-0.68 0.551-1.231 1.231-1.231s1.231 0.551 1.231 1.231z"></path>
<path fill="#242a45" style="fill: var(--color5, #242a45)" opacity="0.25" d="M24.822 14.385h3.695c0.127 0 0.231 0.103 0.231 0.231s-0.103 0.231-0.231 0.231h-3.695c-0.127 0-0.231-0.103-0.231-0.231s0.103-0.231 0.231-0.231z"></path>
<path fill="#fa5959" style="fill: var(--color11, #fa5959)" d="M23.538 18.385c0 0.68-0.551 1.231-1.231 1.231s-1.231-0.551-1.231-1.231c0-0.68 0.551-1.231 1.231-1.231s1.231 0.551 1.231 1.231z"></path>
<path fill="#242a45" style="fill: var(--color5, #242a45)" opacity="0.5" d="M24.822 17.615h7.332c0.127 0 0.231 0.103 0.231 0.231s-0.103 0.231-0.231 0.231h-7.332c-0.127 0-0.231-0.103-0.231-0.231s0.103-0.231 0.231-0.231z"></path>
<path fill="#242a45" style="fill: var(--color5, #242a45)" opacity="0.25" d="M24.822 18.692h3.695c0.127 0 0.231 0.103 0.231 0.231s-0.103 0.231-0.231 0.231h-3.695c-0.127 0-0.231-0.103-0.231-0.231s0.103-0.231 0.231-0.231z"></path>
<path fill="#5267df" style="fill: var(--color2, #5267df)" d="M23.538 22.692c0 0.68-0.551 1.231-1.231 1.231s-1.231-0.551-1.231-1.231c0-0.68 0.551-1.231 1.231-1.231s1.231 0.551 1.231 1.231z"></path>
<path fill="#242a45" style="fill: var(--color5, #242a45)" opacity="0.5" d="M24.822 21.923h7.332c0.127 0 0.231 0.103 0.231 0.231s-0.103 0.231-0.231 0.231h-7.332c-0.127 0-0.231-0.103-0.231-0.231s0.103-0.231 0.231-0.231z"></path>
<path fill="#242a45" style="fill: var(--color5, #242a45)" opacity="0.25" d="M24.822 23h3.695c0.127 0 0.231 0.103 0.231 0.231s-0.103 0.231-0.231 0.231h-3.695c-0.127 0-0.231-0.103-0.231-0.231s0.103-0.231 0.231-0.231z"></path>
<path fill="#5267df" style="fill: var(--color2, #5267df)" d="M23.538 27c0 0.68-0.551 1.231-1.231 1.231s-1.231-0.551-1.231-1.231c0-0.68 0.551-1.231 1.231-1.231s1.231 0.551 1.231 1.231z"></path>
<path fill="#242a45" style="fill: var(--color5, #242a45)" opacity="0.5" d="M24.822 26.231h7.332c0.127 0 0.231 0.103 0.231 0.231s-0.103 0.231-0.231 0.231h-7.332c-0.127 0-0.231-0.103-0.231-0.231s0.103-0.231 0.231-0.231z"></path>
<path fill="#242a45" style="fill: var(--color5, #242a45)" opacity="0.25" d="M24.822 27.308h3.695c0.127 0 0.231 0.103 0.231 0.231s-0.103 0.231-0.231 0.231h-3.695c-0.127 0-0.231-0.103-0.231-0.231s0.103-0.231 0.231-0.231z"></path>
<path fill="#fff" style="fill: var(--color3, #fff)" d="M2.692 6.538h17c0.34 0 0.615 0.276 0.615 0.615v1.385c0 0.34-0.276 0.615-0.615 0.615h-17c-0.34 0-0.615-0.276-0.615-0.615v-1.385c0-0.34 0.276-0.615 0.615-0.615z"></path>
<path fill="#495dcf" style="fill: var(--color1, #495dcf); stroke: var(--color2, #5267df)" opacity="0.2" stroke="#5267df" stroke-linejoin="miter" stroke-linecap="butt" stroke-miterlimit="4" stroke-width="1.5385" d="M33.769 13c0 2.846-2.307 5.154-5.154 5.154s-5.154-2.307-5.154-5.154c0-2.846 2.307-5.154 5.154-5.154s5.154 2.307 5.154 5.154z"></path>
<path fill="none" stroke="#5267df" style="stroke: var(--color2, #5267df)" stroke-linejoin="round" stroke-linecap="round" stroke-miterlimit="4" stroke-width="1.5385" d="M32.231 16.692l3.769 3.769"></path>
</symbol>
<symbol id="icon-illustration-features-tab-3" viewBox="0 0 37 32">
<title>illustration-features-tab-3</title>
<path fill="#e8eaf6" style="fill: var(--color4, #e8eaf6)" d="M0.674 0h28.126c0.372 0 0.674 0.302 0.674 0.674v27.789c0 0.372-0.302 0.674-0.674 0.674h-28.126c-0.372 0-0.674-0.302-0.674-0.674v-27.789c0-0.372 0.302-0.674 0.674-0.674z"></path>
<path fill="#242a45" style="fill: var(--color5, #242a45)" d="M-0.297 0.017h46.063v4.968h-46.063z"></path>
<path fill="#fff" style="fill: var(--color3, #fff)" opacity="0.245" d="M4.587 2.543c0 0.744-0.603 1.347-1.347 1.347s-1.347-0.603-1.347-1.347c0-0.744 0.603-1.347 1.347-1.347s1.347 0.603 1.347 1.347z"></path>
<path fill="#fff" style="fill: var(--color3, #fff)" opacity="0.75" d="M6.103 1.701h9.6c0.14 0 0.253 0.113 0.253 0.253s-0.113 0.253-0.253 0.253h-9.6c-0.14 0-0.253-0.113-0.253-0.253s0.113-0.253 0.253-0.253z"></path>
<path fill="#fff" style="fill: var(--color3, #fff)" opacity="0.25" d="M6.103 2.88h4.884c0.14 0 0.253 0.113 0.253 0.253s-0.113 0.253-0.253 0.253h-4.884c-0.14 0-0.253-0.113-0.253-0.253s0.113-0.253 0.253-0.253z"></path>
<path fill="#fff" style="fill: var(--color3, #fff)" d="M2.947 7.158h18.611c0.372 0 0.674 0.302 0.674 0.674v1.516c0 0.372-0.302 0.674-0.674 0.674h-18.611c-0.372 0-0.674-0.302-0.674-0.674v-1.516c0-0.372 0.302-0.674 0.674-0.674z"></path>
<path fill="#fff" style="fill: var(--color3, #fff)" d="M2.947 11.2h18.611c0.372 0 0.674 0.302 0.674 0.674v1.516c0 0.372-0.302 0.674-0.674 0.674h-18.611c-0.372 0-0.674-0.302-0.674-0.674v-1.516c0-0.372 0.302-0.674 0.674-0.674z"></path>
<path fill="#fff" style="fill: var(--color3, #fff)" d="M2.947 15.242h18.611c0.372 0 0.674 0.302 0.674 0.674v1.516c0 0.372-0.302 0.674-0.674 0.674h-18.611c-0.372 0-0.674-0.302-0.674-0.674v-1.516c0-0.372 0.302-0.674 0.674-0.674z"></path>
<path fill="#fff" style="fill: var(--color3, #fff)" d="M2.947 19.284h18.611c0.372 0 0.674 0.302 0.674 0.674v1.516c0 0.372-0.302 0.674-0.674 0.674h-18.611c-0.372 0-0.674-0.302-0.674-0.674v-1.516c0-0.372 0.302-0.674 0.674-0.674z"></path>
<path fill="#fff" style="fill: var(--color3, #fff)" d="M2.947 23.326h18.611c0.372 0 0.674 0.302 0.674 0.674v1.516c0 0.372-0.302 0.674-0.674 0.674h-18.611c-0.372 0-0.674-0.302-0.674-0.674v-1.516c0-0.372 0.302-0.674 0.674-0.674z"></path>
<path fill="#3a499e" style="fill: var(--color12, #3a499e)" d="M7.688 28.071c0.056 0.17 0.144 0.337 0.267 0.5 2.122 2.819 10.053 3.758 17.872 3.184 4.082-0.3 6.962-2.065 8.782-3.684 0.4-0.356 0.767-0.72 1.114-1.102l0.011-0.012c0.393-0.433 0.7-0.915 0.919-1.423 0.644-1.497 0.52-3.227-0.431-4.645-0.806-1.202-1.913-2.090-2.485-3.077-1.089-1.879 4.668-6.63 0.922-9.632-1.322-1.060-4.14-1.304-7.214-1.14-3.741 0.2-7.862 1.007-10.129 1.688-4.692 1.409-7.628 3.451-8.298 5.748s1.121 3.336 2.685 5.529c1.473 2.065-4.931 5.305-4.013 8.066z"></path>
<path fill="#306299" style="fill: var(--color13, #306299)" d="M15.617 14.642l1.43-0.242 0.216 1.33-1.768 0.522z"></path>
<path fill="#fa9e89" style="fill: var(--color14, #fa9e89)" d="M17.095 14.494s1.11-0.029 2.274-0.515l-0.547 1.032-1.579 0.484-0.147-1.001z"></path>
<path fill="#fff" style="fill: var(--color3, #fff)" opacity="0.152" d="M23.658 11.553c0.683 3.382 12.295 8.563 12.854 14.123 0.599-1.495 0.484-3.222-0.402-4.638-0.751-1.2-1.781-2.087-2.313-3.073-1.014-1.876 4.346-6.62 0.858-9.618-1.231-1.058-3.854-1.302-6.715-1.138-0.871 0.199-4.898 1.291-4.282 4.344z"></path>
<path fill="#000" style="fill: var(--color10, #000)" opacity="0.149" d="M7.426 27.453c-0.083 0.662 0.197 1.123 0.307 1.282 1.889 2.751 12.168 3.668 19.127 3.108 3.633-0.293 6.611-2.165 8.425-4.229l-27.859-0.161z"></path>
<path fill="#000" style="fill: var(--color10, #000)" opacity="0.128" d="M30.852 27.774s0.849 0.051 0.836 0.308c-0.013 0.257-0.548 0.822-0.548 0.822l0.801-0.287 2.417-0.092-0.261 0.225s-1.948 0.090-2.035 0.158c-0.087 0.068-1.201 0.907-1.393 0.942s-12.353 0.019-12.353 0.019-1.251 0.050-1.46-0.336c-0.209-0.385-0.966-0.36-1.175-0.026s-0.18 1.567-0.18 1.567-0.572-0.149-0.603-0.163c-1.984-0.839-4.204-3.458-4.204-3.458l20.158 0.321z"></path>
<path fill="#162f44" style="fill: var(--color15, #162f44)" d="M33.432 24.48l-1.217 4.14s-0.173 0.206-0.299 0.015l0.818-4.214 0.698 0.059zM35.105 24.337l0.601 2.791-0.286 0.325-0.809-3.035z"></path>
<path fill="#f4f2f9" style="fill: var(--color16, #f4f2f9)" d="M17.222 25.27l-0.591 3.357 0.601 0.088s1.345-3.313 1.459-4.108c0.115-0.795-2.117-3.976-2.117-3.976l-2.423 0.206c-0.064 0.692 0.905 1.997 1.771 3.012 0.682 0.8 1.301 1.42 1.301 1.42z"></path>
<path fill="#e0dfea" style="fill: var(--color17, #e0dfea)" d="M17.189 25.14l-0.579 3.349 0.181 0.027 0.006 0.032 0.007-0.030c0.074-0.323 0.938-3.178 0.964-3.76 0.028-0.617-1.181-2.526-1.181-2.526l-0.671 1.492c0.668 0.798 1.273 1.416 1.273 1.416z"></path>
<path fill="#6397d9" style="fill: var(--color18, #6397d9)" d="M13.979 20.968l2.414-0.201 0.112-4.019s-0.589-2.096-1.235-2.096c-0.383 0-0.757 0.152-0.985 0.522-0.156 0.253-0.244 0.608-0.222 1.086 0.051 1.076-0.061 4.118-0.081 4.633-0.002 0.049-0.003 0.075-0.003 0.075z"></path>
<path fill="#8bbff7" style="fill: var(--color19, #8bbff7)" d="M14.643 20.655l-0.045-4.785 0.56-1.139-0.654-0.079-0.23 0.27c-0.151 0.253-0.236 0.608-0.214 1.086 0.050 1.076-0.062 4.192-0.081 4.707l0.664-0.061z"></path>
<path fill="#306299" style="fill: var(--color13, #306299)" d="M14.653 16l1.77 3.368 0.046-1.515 0.037-1.229-1.476-0.624z"></path>
<path fill="#fff" style="fill: var(--color3, #fff)" d="M19.172 29.726h10.834c0.403 0 0.73-0.329 0.73-0.735v-18.572c0-0.406-0.327-0.735-0.73-0.735h-10.835c-0.403 0-0.73 0.329-0.73 0.735v18.572c0 0.406 0.327 0.735 0.73 0.735z"></path>
<path fill="#e4dcf1" style="fill: var(--color20, #e4dcf1)" d="M19.116 12.319v7.446c0 0.153 0.123 0.277 0.274 0.277h10.399c0.151 0 0.274-0.124 0.274-0.277v-7.446c0-0.153-0.123-0.277-0.274-0.277h-10.399c-0.151 0-0.274 0.124-0.274 0.277z"></path>
<path fill="#8e2b43" style="fill: var(--color21, #8e2b43)" d="M24.518 14.063l0.131 0.1 0.278 1.21-0.006 0.199-0.44 0.007c-0.030 0-0.060-0.005-0.087-0.021-0.126-0.074-0.18-0.28-0.11-0.463 0.037-0.098 0.133-0.272 0.144-0.349 0.026-0.184 0.090-0.683 0.090-0.683z"></path>
<path fill="#4ec9b4" style="fill: var(--color22, #4ec9b4)" d="M22.232 20.295l4.717-0.018s0.546-2.581-0.338-3.576c-0.215-0.242-0.495-0.42-0.8-0.536-0.949-0.362-2.143-0.123-2.399 0.671-0.338 1.049-1.179 3.459-1.179 3.459z"></path>
<path fill="#fa9e89" style="fill: var(--color14, #fa9e89)" d="M25.782 16.21s-0.187 0.507-0.598 0.614c-0.412 0.107-0.883-0.271-0.845-0.712 0 0 0.394-0.058 0.459-0.249 0.078-0.232 0.026-0.24 0.026-0.24s-0.154-0.294-0.206-0.507c-0.051-0.214 0.026-1.042 0.386-1.122 0.228-0.051 0.592 0.027 0.849 0.401 0 0-0.129 0.721-0.309 1.068s-0.27 0.507 0.238 0.748z"></path>
<path fill="#f4f2f9" style="fill: var(--color16, #f4f2f9)" opacity="0.184" d="M19.382 9.77l11.186 15.682v3.557c0 0.396-0.312 0.717-0.696 0.717h-10.119c-0.445 0-0.806-0.372-0.806-0.831v-18.805c0-0.247 0.196-0.333 0.435-0.321z"></path>
<path fill="#4ec9b4" style="fill: var(--color22, #4ec9b4)" d="M22.737 18.732l-0.588-2.564-0.928 0.153 0.9 3.721z"></path>
<path fill="#fa9e89" style="fill: var(--color14, #fa9e89)" d="M21.962 16.096l-0.051-0.262s0.152-0.1 0.126-0.249c-0.025-0.149 0.025-0.498 0.025-0.498s-0.081-0.054-0.133 0.044c-0.037 0.070-0.095 0.23-0.095 0.23s-0.193-0.519-0.238-0.656c-0.019-0.058-0.038-0.149-0.082-0.135-0.023 0.007-0.015 0.060-0.011 0.112 0.012 0.155 0.078 0.403 0.078 0.403l-0.034 0.020-0.14-0.444c-0.006-0.022-0.016-0.054-0.039-0.056-0.020-0.002-0.040 0.009-0.040 0.059 0 0.1 0.107 0.512 0.107 0.512l-0.027 0.018-0.163-0.36c-0.011-0.027-0.052-0.025-0.059 0.004-0.005 0.023-0.004 0.055 0.015 0.1 0.051 0.125 0.101 0.324 0.101 0.324l-0.013 0.015-0.088-0.183c-0.016-0.029-0.055-0.048-0.066-0.017-0.016 0.044 0.123 0.419 0.123 0.444s0.095 0.364 0.196 0.389 0.107 0.26 0.107 0.26l0.398-0.073z"></path>
<path fill="#ffdedd" style="fill: var(--color23, #ffdedd)" d="M27.819 22.232h1.878c0.109 0 0.198-0.090 0.198-0.202v-0.27c0-0.111-0.089-0.202-0.198-0.202h-1.878c-0.109 0-0.198 0.090-0.198 0.202v0.27c0 0.111 0.089 0.202 0.198 0.202zM25.124 22.232h1.878c0.109 0 0.198-0.090 0.198-0.202v-0.27c0-0.111-0.089-0.202-0.198-0.202h-1.878c-0.109 0-0.198 0.090-0.198 0.202v0.27c0 0.111 0.089 0.202 0.198 0.202zM22.261 22.232h1.878c0.109 0 0.198-0.090 0.198-0.202v-0.27c0-0.111-0.089-0.202-0.198-0.202h-1.878c-0.109 0-0.198 0.090-0.198 0.202v0.27c0 0.111 0.089 0.202 0.198 0.202zM19.567 22.232h1.878c0.109 0 0.198-0.090 0.198-0.202v-0.27c0-0.111-0.089-0.202-0.198-0.202h-1.878c-0.109 0-0.198 0.090-0.198 0.202v0.27c0 0.111 0.089 0.202 0.198 0.202z"></path>
<path fill="#f4f2f9" style="fill: var(--color16, #f4f2f9)" d="M19.751 23.832h9.929c0.118 0 0.214-0.091 0.214-0.203v-0.268c0-0.112-0.096-0.203-0.214-0.203h-9.929c-0.118 0-0.214 0.091-0.214 0.203v0.268c0 0.112 0.096 0.203 0.214 0.203zM29.68 25.179c0.118 0 0.214-0.091 0.214-0.203v-0.268c0-0.112-0.096-0.203-0.214-0.203h-9.929c-0.118 0-0.214 0.091-0.214 0.203v0.268c0 0.112 0.096 0.203 0.214 0.203h9.929zM19.751 26.526h9.929c0.118 0 0.214-0.091 0.214-0.203v-0.268c0-0.112-0.096-0.203-0.214-0.203h-9.929c-0.118 0-0.214 0.091-0.214 0.203v0.268c0 0.112 0.096 0.203 0.214 0.203zM19.751 27.621h9.929c0.118 0 0.214-0.091 0.214-0.203v-0.268c0-0.112-0.096-0.203-0.214-0.203h-9.929c-0.118 0-0.214 0.091-0.214 0.203v0.268c0 0.112 0.096 0.203 0.214 0.203z"></path>
<path fill="#fc516b" style="fill: var(--color24, #fc516b)" d="M26.040 13.753s-0.531-0.745-1.532-0.314c-1.001 0.431 0.086 1.137 0.086 1.137s0.021-0.275 0.18-0.353l-0.013 0.244 0.561 0.098 0.090-0.235 0.058 0.268 0.282 0.104s-0.231 0.81-0.366 0.928c0 0-0.058 0.189-0.038 0.229s0.873 0.255 0.982 0.059-0.116-0.471-0.186-0.654c-0.071-0.183 0.128-1.155-0.103-1.512z"></path>
<path fill="#e4dcf1" style="fill: var(--color20, #e4dcf1)" d="M28.493 11.705h1.456c0.109 0 0.198-0.113 0.198-0.253s-0.089-0.253-0.198-0.253h-1.456c-0.109 0-0.198 0.113-0.198 0.253s0.089 0.253 0.198 0.253z"></path>
<path fill="#44ad99" style="fill: var(--color25, #44ad99)" d="M26.274 17.768s-0.224 1.624-0.481 2.274h-1.352s-0.223-0.685 0.846-0.909c0.744-0.156 0.987-1.364 0.987-1.364zM23.612 17.347s-0.275 0.842-0.223 1.095c0.051 0.253 0.274 0.438 0.274 0.606s-0.137 0.808-0.137 0.808l-0.789 0.017s0.131-0.022 0.429-0.257c0.455-0.358 0.064-1.147 0.161-1.596 0.051-0.235 0.285-0.674 0.285-0.674zM22.737 18.676s-0.018 0.706-0.161 0.597c-0.143-0.109-0.054-1.158-0.179-1.52s-0.502-1.521-0.502-1.521l0.323-0.063 0.52 2.507z"></path>
<path fill="#fa9e89" style="fill: var(--color14, #fa9e89)" d="M20.6 15.451s-0.133 0.058-0.295 0.257c-0.054 0.066-0.339 0.17-0.407 0.252-0.981 1.181-2.29 2.092-3.13 1.729-1.072-0.463-1.274-0.894-1.274-0.894l0.709-0.957s0.814 1.243 1.468 0.904c0.654-0.339 1.945-1.226 1.945-1.226l0.034-0.544s0.075-0.020 0.111 0.084c0.036 0.104 0.038 0.194 0.038 0.194l0.509-0.591s0.098-0.030 0.068 0.065c-0.030 0.095-0.21 0.368-0.21 0.368s-0.019 0.052 0.020 0.028c0.045-0.028 0.401-0.429 0.401-0.429s0.082-0.005 0.049 0.073c-0.026 0.060-0.241 0.344-0.314 0.451-0.022 0.032 0.024 0.020 0.024 0.020l0.294-0.25c0.040-0.027 0.081-0.018 0.073 0.031-0.006 0.039-0.086 0.128-0.134 0.163-0.119 0.088-0.202 0.249-0.202 0.249l0.256-0.093s0.050 0.044-0.035 0.118zM14.568 12.336l0.324 2.385 1.065 0.184s-0.054-0.056-0.116-0.131c-0.063-0.076-0.134-0.173-0.165-0.25-0.072-0.177-0.072-0.342-0.072-0.342s0.472 0.053 0.545-0.219c0.073-0.272-0.096-1.54-0.096-1.54s-0.211-0.797-1.485-0.088z"></path>
<path fill="#261f27" style="fill: var(--color26, #261f27)" d="M15.462 12.363s0.525 0.397 1.029 0.059c0 0-0.319-0.029-0.419-0.191 0 0 0.199 0.051 0.433-0.279 0 0-0.412 0.059-0.553-0.066s-0.866-0.323-1.299-0.022c-0.433 0.301-0.426 0.522-0.426 0.522s-0.255 0.095-0.248 0.242c0.007 0.147 0.632 1.351 0.632 1.351l0.135-0.536s-0.106 0.032-0.17-0.218c-0.064-0.25 0.213-0.142 0.241-0.091s0.213-0.353 0.213-0.353l-0.028-0.235s-0.092-0.301 0.461-0.184z"></path>
<path fill="#fff" style="fill: var(--color3, #fff)" d="M14.466 23.527c0.302 1.22-0.257 6.098-0.257 6.098l0.547 0.102c2.203-5.054 1.699-9.179 1.699-9.179l-2.477 0.203s0.006-0.103 0.009-0.079c0.028 0.253 0.203 1.742 0.478 2.855z"></path>
<path fill="#6397d9" style="fill: var(--color18, #6397d9)" d="M17.202 28.385l0.636 0.493s0.251-0.030 0.299 0.086c0.048 0.116 0.053 0.247 0.053 0.247l-0.665 0.010-1.104-0.438 0.173-0.488 0.607 0.091zM14.691 29.839s0.225 0.364 0.452 0.661c0.076 0.1 0.262 0.143 0.335 0.387 0.062 0.21-0.062 0.355-0.062 0.355s-0.418-0.075-0.709-0.333c-0.291-0.258-0.727-0.753-0.727-0.753l0.119-0.43 0.592 0.113z"></path>
<path fill="#224a7d" style="fill: var(--color27, #224a7d)" d="M31.495 23.747c0 0.326 1.093 0.589 2.442 0.589s2.442-0.264 2.442-0.589-1.093-0.589-2.442-0.589-2.442 0.264-2.442 0.589z"></path>
<path fill="#6397d9" style="fill: var(--color18, #6397d9)" d="M31.495 23.663c0 0.326 1.093 0.589 2.442 0.589s2.442-0.264 2.442-0.589-1.093-0.589-2.442-0.589-2.442 0.264-2.442 0.589z"></path>
<path fill="#162f44" style="fill: var(--color15, #162f44)" d="M33.263 23.326c0 0.14 0.452 0.253 1.011 0.253s1.011-0.113 1.011-0.253-0.452-0.253-1.011-0.253-1.011 0.113-1.011 0.253zM36.379 23.579v0.336s-0.006 0.207-0.421 0.338l0.099-0.364s0.292-0.126 0.322-0.31z"></path>
<path fill="#8cc5f2" style="fill: var(--color28, #8cc5f2)" d="M31.495 23.579v0.344s-0.033 0.172 0.421 0.33l-0.139-0.401s-0.241-0.108-0.281-0.272z"></path>
<path fill="#fc516b" style="fill: var(--color24, #fc516b)" d="M33.095 22.487l0.166 0.648c0.041 0.161 0.204 0.276 0.392 0.276h0.356c0.133 0 0.255-0.058 0.328-0.149 0.025-0.031 0.045-0.066 0.058-0.105l0.001-0.002 0.144-0.447 0.071-0.222-1.516 0.003z"></path>
<path fill="#9b293f" style="fill: var(--color29, #9b293f)" d="M33.095 22.4c0 0.046 0.339 0.084 0.758 0.084s0.758-0.038 0.758-0.084-0.339-0.084-0.758-0.084-0.758 0.038-0.758 0.084z"></path>
<path fill="#f995a9" style="fill: var(--color30, #f995a9)" d="M34.139 23.297c-0.030 0.012-0.058 0.021-0.084 0.029l0.178-0.027c0.024-0.032 0.043-0.070 0.055-0.111l0.001-0.003 0.136-0.472c0.007-0.023 0.018-0.059 0.018-0.060 0 0-0.355 0.105-0.674 0.069 0.104 0.014 0.363 0.035 0.519 0.027 0.001-0 0.002-0 0.004-0 0.034 0 0.061 0.027 0.061 0.061 0 0.003-0 0.005-0.001 0.008l0-0c-0.020 0.14-0.076 0.427-0.213 0.48z"></path>
<path fill="#51a595" style="fill: var(--color31, #51a595)" d="M33.768 22.223l0.057 0.26 0.042 0.001s0.002-0.261 0.309-0.421c0.307-0.16 0.263-0.758 0.263-0.758l-0 0.001c-0.007 0.015-0.125 0.261-0.215 0.277-0.092 0.017-0.149 0.164-0.149 0.164s-0.044 0.063-0.097 0.051c-0.053-0.013-0.105 0.126-0.105 0.126l-0.017 0.148-0.088 0.152z"></path>
<path fill="#4ec9b4" style="fill: var(--color22, #4ec9b4)" d="M34.189 22.736s0.059-1.974-0.977-2.525c0 0-0.295 0.114 0.051 0.587s0.067 0.814 0.219 0.937c0.152 0.123 0.371 0.201 0.337 0.359s0.008 0.315 0.076 0.333c0.067 0.017 0.219 0.11 0.243 0.311l0.052-0.001z"></path>
<path fill="#41877a" style="fill: var(--color32, #41877a)" d="M34.189 22.383l0.003 0.1 0.045 0.001s0.003-0.261 0.336-0.421c0.334-0.16 0.286-0.758 0.286-0.758l-0 0.001-0.028 0.090c0 0.543-0.314 0.656-0.439 0.728s-0.204 0.259-0.204 0.259z"></path>
<path fill="#306299" style="fill: var(--color13, #306299)" d="M15.679 14.914s-0.889 0.014-0.968-0.093l-0.058 0.16s0.704 0.384 1.179 0.221l-0.153-0.288z"></path>
<path fill="#8cc5f2" style="fill: var(--color28, #8cc5f2)" d="M16.926 16.077l-1.060 1.186s-1.417-1.27-1.381-1.668c0.035-0.398 0.554-1.222 1.35-0.465 0.775 0.737 1.091 0.947 1.091 0.947z"></path>
<path fill="#f4f2f9" style="fill: var(--color16, #f4f2f9)" d="M14.195 29.697l0.216 0.029s1.013-3.576 0.68-6.219c-0.1-0.794-0.45-2.792-0.45-2.792l-0.662 0.062c0.027 0.255 0.198 1.672 0.457 2.79 0.284 1.226-0.241 6.129-0.241 6.129z"></path>
<path fill="#e6846f" style="fill: var(--color33, #e6846f)" d="M15.348 14.784c0.125 0.027 0.194 0.036 0.231 0.037-0.059-0.081-0.125-0.184-0.154-0.266-0.067-0.189-0.067-0.365-0.067-0.365s-0.25-0.066-0.276-0.035c-0.026 0.031 0 0.57 0.266 0.628z"></path>
<path fill="#cec3e2" style="fill: var(--color34, #cec3e2)" d="M27.621 15.074c0 0.884 0.678 1.6 1.514 1.6 0.35 0 0.672-0.126 0.929-0.337v-2.527c-0.256-0.211-0.579-0.337-0.929-0.337-0.836 0-1.514 0.716-1.514 1.6z"></path>
<path fill="#c3b8d8" style="fill: var(--color35, #c3b8d8)" d="M27.621 15.116c0 0.86 0.631 1.558 1.409 1.558 0.326 0 0.626-0.122 0.864-0.328v-2.461c-0.239-0.205-0.539-0.328-0.864-0.328-0.778 0-1.409 0.698-1.409 1.558z"></path>
<path fill="#44ad99" style="fill: var(--color25, #44ad99)" d="M25.432 16.513s0.167-0.093 0.194-0.11c0.026-0.017 0.37 0.076 0.827 0.549s0.061 0.869 0.255 1.123c0.194 0.253 0.009 0.785-0.088 1.148s0 0.819 0 0.819l0.005 0 0.153-0s0.554-2.431-0.343-3.368c-0.219-0.228-0.503-0.396-0.812-0.505l-0.191 0.345z"></path>
</symbol>
<symbol id="icon-illustration-hero" viewBox="0 0 45 32">
<title>illustration-hero</title>
<path fill="#000" style="fill: var(--color10, #000)" d="M4.498 0.652h36.12c0.986 0 1.785 0.799 1.785 1.785v22.867c0 0.986-0.799 1.785-1.785 1.785h-36.12c-0.986 0-1.785-0.799-1.785-1.785v-22.867c0-0.986 0.799-1.785 1.785-1.785z"></path>
<path fill="#777" style="fill: var(--color36, #777)" d="M4.498 0.652h36.12c0.986 0 1.785 0.799 1.785 1.785v22.867c0 0.986-0.799 1.785-1.785 1.785h-36.12c-0.986 0-1.785-0.799-1.785-1.785v-22.867c0-0.986 0.799-1.785 1.785-1.785z"></path>
<path fill="#000" style="fill: var(--color10, #000)" d="M4.567 0.79h35.999c0.948 0 1.717 0.769 1.717 1.717v22.789c0 0.948-0.769 1.717-1.717 1.717h-35.999c-0.948 0-1.717-0.769-1.717-1.717v-22.789c0-0.948 0.769-1.717 1.717-1.717z"></path>
<path fill="#2a2a2a" style="fill: var(--color37, #2a2a2a)" opacity="0.1" d="M6.766 1.772h31.688c0.19 0 0.343 0.154 0.343 0.343v23.606c0 0.19-0.154 0.343-0.343 0.343h-31.688c-0.19 0-0.343-0.154-0.343-0.343v-23.606c0-0.19 0.154-0.343 0.343-0.343z"></path>
<path fill="#e8eaf6" style="fill: var(--color4, #e8eaf6)" d="M4.706 1.978h35.708c0.303 0 0.549 0.246 0.549 0.549v22.661c0 0.303-0.246 0.549-0.549 0.549h-35.708c-0.303 0-0.549-0.246-0.549-0.549v-22.661c0-0.303 0.246-0.549 0.549-0.549z"></path>
<path fill="#5267df" style="fill: var(--color2, #5267df)" d="M3.914 1.991h37.562v4.051h-37.562z"></path>
<path fill="#fff" style="fill: var(--color3, #fff)" opacity="0.245" d="M7.897 4.051c0 0.607-0.492 1.099-1.099 1.099s-1.099-0.492-1.099-1.099c0-0.607 0.492-1.099 1.099-1.099s1.099 0.492 1.099 1.099z"></path>
<path fill="#fff" style="fill: var(--color3, #fff)" opacity="0.104" d="M39.554 4.051c0 0.607-0.492 1.099-1.099 1.099s-1.099-0.492-1.099-1.099c0-0.607 0.492-1.099 1.099-1.099s1.099 0.492 1.099 1.099z"></path>
<path fill="#fff" style="fill: var(--color3, #fff)" opacity="0.75" d="M9.133 3.365h7.828c0.114 0 0.206 0.092 0.206 0.206s-0.092 0.206-0.206 0.206h-7.828c-0.114 0-0.206-0.092-0.206-0.206s0.092-0.206 0.206-0.206z"></path>
<path fill="#fff" style="fill: var(--color3, #fff)" opacity="0.25" d="M9.133 4.326h3.983c0.114 0 0.206 0.092 0.206 0.206s-0.092 0.206-0.206 0.206h-3.983c-0.114 0-0.206-0.092-0.206-0.206s0.092-0.206 0.206-0.206z"></path>
<path fill="#fff" style="fill: var(--color3, #fff)" d="M8.62 8.364h16.824c0.303 0 0.549 0.246 0.549 0.549v20.601c0 0.303-0.246 0.549-0.549 0.549h-16.824c-0.303 0-0.549-0.246-0.549-0.549v-20.601c0-0.303 0.246-0.549 0.549-0.549z"></path>
<path fill="#fff" style="fill: var(--color3, #fff)" d="M28.878 8.364h7.691c0.303 0 0.549 0.246 0.549 0.549v20.601c0 0.303-0.246 0.549-0.549 0.549h-7.691c-0.303 0-0.549-0.246-0.549-0.549v-20.601c0-0.303 0.246-0.549 0.549-0.549z"></path>
<path fill="#242a45" style="fill: var(--color5, #242a45)" opacity="0.5" d="M13.665 10.987h7.828c0.114 0 0.206 0.092 0.206 0.206s-0.092 0.206-0.206 0.206h-7.828c-0.114 0-0.206-0.092-0.206-0.206s0.092-0.206 0.206-0.206z"></path>
<path fill="#f98e5d" style="fill: var(--color6, #f98e5d)" d="M12.429 11.674c0 0.607-0.492 1.099-1.099 1.099s-1.099-0.492-1.099-1.099c0-0.607 0.492-1.099 1.099-1.099s1.099 0.492 1.099 1.099z"></path>
<path fill="#242a45" style="fill: var(--color5, #242a45)" opacity="0.25" d="M29.94 9.888h5.631c0.114 0 0.206 0.092 0.206 0.206s-0.092 0.206-0.206 0.206h-5.631c-0.114 0-0.206-0.092-0.206-0.206s0.092-0.206 0.206-0.206z"></path>
<path fill="#242a45" style="fill: var(--color5, #242a45)" opacity="0.25" d="M29.94 11.262h5.631c0.114 0 0.206 0.092 0.206 0.206s-0.092 0.206-0.206 0.206h-5.631c-0.114 0-0.206-0.092-0.206-0.206s0.092-0.206 0.206-0.206z"></path>
<path fill="#242a45" style="fill: var(--color5, #242a45)" opacity="0.25" d="M29.94 12.635h5.631c0.114 0 0.206 0.092 0.206 0.206s-0.092 0.206-0.206 0.206h-5.631c-0.114 0-0.206-0.092-0.206-0.206s0.092-0.206 0.206-0.206z"></path>
<path fill="#242a45" style="fill: var(--color5, #242a45)" opacity="0.25" d="M29.94 14.009h5.631c0.114 0 0.206 0.092 0.206 0.206s-0.092 0.206-0.206 0.206h-5.631c-0.114 0-0.206-0.092-0.206-0.206s0.092-0.206 0.206-0.206z"></path>
<path fill="#242a45" style="fill: var(--color5, #242a45)" opacity="0.25" d="M29.94 16.343h5.631c0.114 0 0.206 0.092 0.206 0.206s-0.092 0.206-0.206 0.206h-5.631c-0.114 0-0.206-0.092-0.206-0.206s0.092-0.206 0.206-0.206z"></path>
<path fill="#242a45" style="fill: var(--color5, #242a45)" opacity="0.25" d="M29.94 17.717h5.631c0.114 0 0.206 0.092 0.206 0.206s-0.092 0.206-0.206 0.206h-5.631c-0.114 0-0.206-0.092-0.206-0.206s0.092-0.206 0.206-0.206z"></path>
<path fill="#242a45" style="fill: var(--color5, #242a45)" opacity="0.25" d="M29.94 19.090h5.631c0.114 0 0.206 0.092 0.206 0.206s-0.092 0.206-0.206 0.206h-5.631c-0.114 0-0.206-0.092-0.206-0.206s0.092-0.206 0.206-0.206z"></path>
<path fill="#242a45" style="fill: var(--color5, #242a45)" opacity="0.25" d="M13.665 11.948h3.983c0.114 0 0.206 0.092 0.206 0.206s-0.092 0.206-0.206 0.206h-3.983c-0.114 0-0.206-0.092-0.206-0.206s0.092-0.206 0.206-0.206z"></path>
<path fill="#6ac6d6" style="fill: var(--color7, #6ac6d6)" d="M12.429 15.519c0 0.607-0.492 1.099-1.099 1.099s-1.099-0.492-1.099-1.099c0-0.607 0.492-1.099 1.099-1.099s1.099 0.492 1.099 1.099z"></path>
<path fill="#242a45" style="fill: var(--color5, #242a45)" opacity="0.5" d="M13.665 14.833h7.828c0.114 0 0.206 0.092 0.206 0.206s-0.092 0.206-0.206 0.206h-7.828c-0.114 0-0.206-0.092-0.206-0.206s0.092-0.206 0.206-0.206z"></path>
<path fill="#242a45" style="fill: var(--color5, #242a45)" opacity="0.25" d="M13.665 15.794h3.983c0.114 0 0.206 0.092 0.206 0.206s-0.092 0.206-0.206 0.206h-3.983c-0.114 0-0.206-0.092-0.206-0.206s0.092-0.206 0.206-0.206z"></path>
<path fill="#a47ed4" style="fill: var(--color8, #a47ed4)" d="M12.429 19.365c0 0.607-0.492 1.099-1.099 1.099s-1.099-0.492-1.099-1.099c0-0.607 0.492-1.099 1.099-1.099s1.099 0.492 1.099 1.099z"></path>
<path fill="#242a45" style="fill: var(--color5, #242a45)" opacity="0.5" d="M13.665 18.678h7.828c0.114 0 0.206 0.092 0.206 0.206s-0.092 0.206-0.206 0.206h-7.828c-0.114 0-0.206-0.092-0.206-0.206s0.092-0.206 0.206-0.206z"></path>
<path fill="#242a45" style="fill: var(--color5, #242a45)" opacity="0.25" d="M13.665 19.64h3.983c0.114 0 0.206 0.092 0.206 0.206s-0.092 0.206-0.206 0.206h-3.983c-0.114 0-0.206-0.092-0.206-0.206s0.092-0.206 0.206-0.206z"></path>
<path fill="#ec7878" style="fill: var(--color9, #ec7878)" d="M12.429 23.21c0 0.607-0.492 1.099-1.099 1.099s-1.099-0.492-1.099-1.099c0-0.607 0.492-1.099 1.099-1.099s1.099 0.492 1.099 1.099z"></path>
<path fill="#242a45" style="fill: var(--color5, #242a45)" opacity="0.5" d="M13.665 22.524h7.828c0.114 0 0.206 0.092 0.206 0.206s-0.092 0.206-0.206 0.206h-7.828c-0.114 0-0.206-0.092-0.206-0.206s0.092-0.206 0.206-0.206z"></path>
<path fill="#242a45" style="fill: var(--color5, #242a45)" opacity="0.25" d="M13.665 23.485h3.983c0.114 0 0.206 0.092 0.206 0.206s-0.092 0.206-0.206 0.206h-3.983c-0.114 0-0.206-0.092-0.206-0.206s0.092-0.206 0.206-0.206z"></path>
</symbol>
<symbol id="icon-logo-bookmark" viewBox="0 0 189 32">
<title>logo-bookmark</title>
<path fill="#242a45" style="fill: var(--color5, #242a45)" d="M47.36 8.063h6.691c0.955 0 1.836 0.198 2.639 0.596 0.805 0.398 1.437 0.941 1.9 1.626s0.694 1.434 0.694 2.245c0 0.86-0.211 1.605-0.634 2.235-0.422 0.628-0.975 1.111-1.66 1.445v0.192c0.892 0.317 1.6 0.823 2.126 1.517 0.525 0.692 0.788 1.524 0.788 2.496 0 0.941-0.251 1.773-0.753 2.497-0.512 0.727-1.199 1.299-2.001 1.661l-0.031 0.012c-0.851 0.39-1.796 0.585-2.831 0.585h-6.929v-17.107zM53.811 15.039c0.701 0 1.262-0.195 1.684-0.585s0.634-0.881 0.634-1.469c0-0.573-0.204-1.055-0.609-1.446-0.407-0.389-0.945-0.585-1.613-0.585h-3.322v4.086h3.226zM54.17 22.231c0.781 0 1.39-0.204 1.828-0.609s0.657-0.936 0.657-1.588c0-0.653-0.223-1.187-0.668-1.601-0.447-0.415-1.084-0.621-1.912-0.621h-3.488v4.42h3.584zM70.716 25.553c-1.673 0-3.19-0.394-4.552-1.183-1.35-0.783-2.44-1.881-3.192-3.196l-0.022-0.042c-0.781-1.37-1.171-2.875-1.171-4.516 0-1.64 0.39-3.145 1.171-4.516 0.774-1.357 1.863-2.454 3.172-3.215l0.041-0.022c1.364-0.788 2.88-1.183 4.554-1.183 1.672 0 3.19 0.394 4.552 1.183 1.35 0.784 2.439 1.881 3.191 3.196l0.022 0.042c0.781 1.37 1.171 2.875 1.171 4.515 0 1.641-0.39 3.146-1.171 4.516-0.774 1.357-1.863 2.455-3.172 3.216l-0.041 0.022c-1.362 0.788-2.88 1.183-4.552 1.183zM70.716 22.493c0.017 0 0.038 0 0.059 0 1.040 0 2.016-0.275 2.86-0.755l-0.028 0.015c0.874-0.495 1.576-1.202 2.053-2.052l0.014-0.027c0.502-0.892 0.753-1.912 0.753-3.059s-0.251-2.166-0.753-3.058c-0.491-0.877-1.194-1.583-2.041-2.065l-0.026-0.014c-0.816-0.466-1.792-0.741-2.834-0.741-0.020 0-0.040 0-0.060 0l0.003-0c-0.019-0-0.041-0-0.063-0-1.036 0-2.007 0.275-2.845 0.756l0.028-0.015c-0.868 0.498-1.566 1.204-2.040 2.052l-0.014 0.027c-0.502 0.892-0.753 1.911-0.753 3.059 0 1.146 0.251 2.166 0.753 3.058 0.489 0.875 1.187 1.581 2.028 2.065l0.026 0.014c0.81 0.466 1.78 0.74 2.815 0.74 0.023 0 0.046-0 0.069-0l-0.003 0zM90.368 25.553c-1.673 0-3.19-0.394-4.552-1.183-1.35-0.784-2.439-1.881-3.191-3.196l-0.022-0.042c-0.781-1.37-1.171-2.875-1.171-4.516 0-1.64 0.39-3.145 1.17-4.516 0.774-1.357 1.864-2.454 3.173-3.215l0.041-0.022c1.362-0.788 2.88-1.183 4.552-1.183 1.673 0 3.19 0.394 4.552 1.183 1.35 0.784 2.439 1.881 3.191 3.196l0.022 0.042c0.781 1.37 1.171 2.875 1.171 4.515 0 1.641-0.39 3.146-1.17 4.516-0.774 1.358-1.864 2.455-3.173 3.216l-0.041 0.022c-1.362 0.788-2.88 1.183-4.552 1.183zM90.368 22.493c0.018 0 0.039 0 0.060 0 1.040 0 2.016-0.275 2.86-0.755l-0.028 0.015c0.873-0.496 1.575-1.202 2.052-2.052l0.014-0.027c0.502-0.892 0.753-1.912 0.753-3.059s-0.251-2.166-0.753-3.058c-0.491-0.877-1.193-1.583-2.040-2.065l-0.026-0.014c-0.816-0.466-1.792-0.741-2.834-0.741-0.020 0-0.041 0-0.061 0l0.003-0c-0.019-0-0.041-0-0.063-0-1.036 0-2.007 0.275-2.845 0.756l0.028-0.015c-0.868 0.498-1.566 1.204-2.040 2.052l-0.014 0.027c-0.502 0.892-0.753 1.911-0.753 3.059 0 1.146 0.251 2.166 0.753 3.058 0.489 0.875 1.187 1.581 2.030 2.065l0.026 0.014c0.81 0.466 1.78 0.74 2.815 0.74 0.023 0 0.045-0 0.067-0l-0.003 0zM102.182 8.064h3.226v7.334h0.192l6.259-7.334h3.895v0.191l-6.186 7.071 6.833 9.654v0.191h-3.942l-5.112-7.287-1.935 2.269v5.018h-3.226v-17.107zM120.037 7.68h4.157l4.539 12.019h0.192l4.538-12.019h4.182v17.107h-3.201v-8.434l0.192-2.843h-0.192l-4.349 11.277h-2.509l-4.372-11.277h-0.191l0.192 2.843v8.435h-3.178v-17.108zM146.661 7.68h3.704l6.427 17.107h-3.56l-1.434-4.086h-6.547l-1.434 4.086h-3.56l6.403-17.107zM150.748 17.74l-1.505-4.301-0.622-2.056h-0.191l-0.621 2.056-1.53 4.301h4.467zM159.428 7.68h6.236c1.115 0 2.107 0.23 2.975 0.692s1.541 1.103 2.019 1.924c0.479 0.819 0.717 1.748 0.717 2.784 0 1.098-0.346 2.074-1.039 2.926-0.677 0.832-1.561 1.47-2.575 1.839l-0.041 0.013-0.023 0.166 4.588 6.572v0.192h-3.704l-4.42-6.428h-1.505v6.427h-3.226v-17.107zM165.64 15.398c0.733 0 1.331-0.224 1.792-0.669 0.462-0.447 0.694-1.011 0.694-1.697 0-0.653-0.22-1.21-0.658-1.672s-1.032-0.694-1.779-0.694h-3.035v4.731h2.986zM174.894 7.68h3.226v7.334h0.192l6.259-7.334h3.895v0.192l-6.189 7.072 6.835 9.652v0.192h-3.942l-5.115-7.288-1.935 2.269v5.018h-3.226v-17.107z"></path>
<path fill="#5267df" style="fill: var(--color2, #5267df)" d="M32 16c0 8.837-7.163 16-16 16s-16-7.163-16-16c0-8.837 7.163-16 16-16s16 7.163 16 16z"></path>
<path fill="#fff" style="fill: var(--color3, #fff)" d="M11.52 11.52v12.8l4.531-4.403 4.529 4.403v-12.8c0-1.414-1.146-2.56-2.56-2.56v0h-3.94c-1.414 0-2.56 1.146-2.56 2.56v0z"></path>
</symbol>
<symbol id="icon-logo-chrome" viewBox="0 0 33 32">
<title>logo-chrome</title>
<path fill="#e16b5a" style="fill: var(--color38, #e16b5a)" d="M16.246 0.003s9.603-0.424 14.693 9.040h-15.509s-2.929-0.095-5.426 3.39c-0.72 1.46-1.488 2.966-0.624 5.932-1.248-2.071-6.627-11.252-6.627-11.252s3.794-6.733 13.493-7.11z"></path>
<path fill="#ffd464" style="fill: var(--color39, #ffd464)" d="M30.439 24.030s-4.428 8.366-15.332 7.954c1.345-2.282 7.757-13.169 7.757-13.169s1.548-2.44-0.28-6.303c-0.929-1.341-3.744-2.748-6.796-3.497 2.454-0.024 15.12 0.002 15.12 0.002s4.049 6.589-0.469 15.013z"></path>
<path fill="#74b340" style="fill: var(--color40, #74b340)" d="M2.121 24.094s-5.174-7.944 0.641-16.997l7.752 13.172s1.38 2.534 5.706 2.913c1.649-0.118 3.364-0.218 5.552-2.434-1.206 2.096-6.628 11.252-6.628 11.252s-7.843 0.143-13.024-7.906z"></path>
<path fill="#fff" style="fill: var(--color3, #fff)" d="M23.587 16.13c0 4.004-3.304 7.25-7.38 7.25s-7.38-3.246-7.38-7.25c0-4.004 3.304-7.25 7.38-7.25s7.38 3.246 7.38 7.25z"></path>
<path fill="#2995cc" style="fill: var(--color41, #2995cc)" d="M22.058 16.13c0 3.176-2.621 5.75-5.853 5.75s-5.853-2.574-5.853-5.75c0-3.176 2.621-5.75 5.853-5.75s5.853 2.574 5.853 5.75z"></path>
<path fill="#268cbf" style="fill: var(--color42, #268cbf)" d="M16.206 10.381c-0.116 0-0.232 0.004-0.346 0.011 3.071 0.176 5.507 2.678 5.507 5.739s-2.436 5.564-5.507 5.74c0.115 0.006 0.23 0.011 0.347 0.011 3.232 0 5.853-2.575 5.853-5.75s-2.621-5.75-5.853-5.75z"></path>
</symbol>
<symbol id="icon-logo-firefox" viewBox="0 0 34 32">
<title>logo-firefox</title>
<path fill="#ff9800" style="fill: var(--color43, #ff9800)" d="M33.6 16c0 9.236-7.524 16-16.8 16s-16.8-7.492-16.8-16.728c0-2.894 0.746-5.629 2.045-8 0.017-0.046 0.042-0.085 0.074-0.117l-0 0c-0.731-1.089-1.052-3.853 0.802-5.702 0 0.772 0.468 2.095 0.993 3.084 0.424 0.786 0.876 1.353 1.197 1.28 0.731-0.174 3.286-0.174 3.652 0 0.601-0.77 2.062-2.909 4.385-2.909-1.3 1.294-5.025 5.819 1.461 5.819h1.462l-4.385 2.908s0.498 0.96 0 1.455c-0.554-0.554-2.921 0.596-2.921 2.181s1.695 3.636 5.114 3.636c3.419 0 2.556-1.455 4.383-1.455s2.19 1.455 2.19 1.455c-2.514 0-4.339 2.909-7.304 2.909 1.461 1.076 2.426 1.455 4.383 1.455 4.836 0 8.765-3.912 8.765-8.728 0-1.949-0.643-3.739-1.724-5.192 1.95 1.459 3.264 3.675 3.505 6.204l0.003 0.035c0.26-0.969 0.409-2.081 0.409-3.228v-0c0-4.379-1.869-10.168-5.114-12.364 4.675 1.395 10.225 5.909 10.225 14.545v1.455z"></path>
</symbol>
<symbol id="icon-logo-opera" viewBox="0 0 31 32">
<title>logo-opera</title>
<path fill="#eb6060" style="fill: var(--color44, #eb6060)" d="M15.36 32c-8.483 0-15.36-7.164-15.36-16s6.877-16 15.36-16 15.36 7.164 15.36 16-6.877 16-15.36 16zM15.36 28.8c4.418 0 8-5.731 8-12.8s-3.582-12.8-8-12.8-8 5.731-8 12.8 3.582 12.8 8 12.8z"></path>
</symbol>
</defs>
</svg>
