<!-- Generated by IcoMoon.io -->
<svg version="1.1" xmlns="http://www.w3.org/2000/svg" width="37" height="32" viewBox="0 0 37 32">
<title>illustration-features-tab-2</title>
<path fill="#e8eaf6" d="M0.615 0h25.692c0.34 0 0.615 0.276 0.615 0.615v25.385c0 0.34-0.276 0.615-0.615 0.615h-25.692c-0.34 0-0.615-0.276-0.615-0.615v-25.385c0-0.34 0.276-0.615 0.615-0.615z"></path>
<path fill="#242a45" d="M-0.272 0.015h42.077v4.538h-42.077z"></path>
<path fill="#fff" opacity="0.245" d="M4.19 2.323c0 0.68-0.551 1.231-1.231 1.231s-1.231-0.551-1.231-1.231c0-0.68 0.551-1.231 1.231-1.231s1.231 0.551 1.231 1.231z"></path>
<path fill="#fff" opacity="0.75" d="M5.575 1.554h8.769c0.127 0 0.231 0.103 0.231 0.231s-0.103 0.231-0.231 0.231h-8.769c-0.127 0-0.231-0.103-0.231-0.231s0.103-0.231 0.231-0.231z"></path>
<path fill="#fff" opacity="0.25" d="M5.575 2.631h4.462c0.127 0 0.231 0.103 0.231 0.231s-0.103 0.231-0.231 0.231h-4.462c-0.127 0-0.231-0.103-0.231-0.231s0.103-0.231 0.231-0.231z"></path>
<path fill="#000" d="M2.692 10.615h14.154c0.34 0 0.615 0.276 0.615 0.615v18.385c0 0.34-0.276 0.615-0.615 0.615h-14.154c-0.34 0-0.615-0.276-0.615-0.615v-18.385c0-0.34 0.276-0.615 0.615-0.615z"></path>
<path fill="#fff" d="M2.692 10.615h14.154c0.34 0 0.615 0.276 0.615 0.615v18.385c0 0.34-0.276 0.615-0.615 0.615h-14.154c-0.34 0-0.615-0.276-0.615-0.615v-18.385c0-0.34 0.276-0.615 0.615-0.615z"></path>
<path fill="#242a45" opacity="0.5" d="M7.591 13.308h7.332c0.127 0 0.231 0.103 0.231 0.231s-0.103 0.231-0.231 0.231h-7.332c-0.127 0-0.231-0.103-0.231-0.231s0.103-0.231 0.231-0.231z"></path>
<path fill="#5267df" d="M6.308 14.077c0 0.68-0.551 1.231-1.231 1.231s-1.231-0.551-1.231-1.231c0-0.68 0.551-1.231 1.231-1.231s1.231 0.551 1.231 1.231z"></path>
<path fill="#242a45" opacity="0.25" d="M7.591 14.385h3.695c0.127 0 0.231 0.103 0.231 0.231s-0.103 0.231-0.231 0.231h-3.695c-0.127 0-0.231-0.103-0.231-0.231s0.103-0.231 0.231-0.231z"></path>
<path fill="#5267df" d="M6.308 18.385c0 0.68-0.551 1.231-1.231 1.231s-1.231-0.551-1.231-1.231c0-0.68 0.551-1.231 1.231-1.231s1.231 0.551 1.231 1.231z"></path>
<path fill="#242a45" opacity="0.5" d="M7.591 17.615h7.332c0.127 0 0.231 0.103 0.231 0.231s-0.103 0.231-0.231 0.231h-7.332c-0.127 0-0.231-0.103-0.231-0.231s0.103-0.231 0.231-0.231z"></path>
<path fill="#242a45" opacity="0.25" d="M7.591 18.692h3.695c0.127 0 0.231 0.103 0.231 0.231s-0.103 0.231-0.231 0.231h-3.695c-0.127 0-0.231-0.103-0.231-0.231s0.103-0.231 0.231-0.231z"></path>
<path fill="#5267df" d="M6.308 22.692c0 0.68-0.551 1.231-1.231 1.231s-1.231-0.551-1.231-1.231c0-0.68 0.551-1.231 1.231-1.231s1.231 0.551 1.231 1.231z"></path>
<path fill="#242a45" opacity="0.5" d="M7.591 21.923h7.332c0.127 0 0.231 0.103 0.231 0.231s-0.103 0.231-0.231 0.231h-7.332c-0.127 0-0.231-0.103-0.231-0.231s0.103-0.231 0.231-0.231z"></path>
<path fill="#242a45" opacity="0.25" d="M7.591 23h3.695c0.127 0 0.231 0.103 0.231 0.231s-0.103 0.231-0.231 0.231h-3.695c-0.127 0-0.231-0.103-0.231-0.231s0.103-0.231 0.231-0.231z"></path>
<path fill="#5267df" d="M6.308 27c0 0.68-0.551 1.231-1.231 1.231s-1.231-0.551-1.231-1.231c0-0.68 0.551-1.231 1.231-1.231s1.231 0.551 1.231 1.231z"></path>
<path fill="#242a45" opacity="0.5" d="M7.591 26.231h7.332c0.127 0 0.231 0.103 0.231 0.231s-0.103 0.231-0.231 0.231h-7.332c-0.127 0-0.231-0.103-0.231-0.231s0.103-0.231 0.231-0.231z"></path>
<path fill="#242a45" opacity="0.25" d="M7.591 27.308h3.695c0.127 0 0.231 0.103 0.231 0.231s-0.103 0.231-0.231 0.231h-3.695c-0.127 0-0.231-0.103-0.231-0.231s0.103-0.231 0.231-0.231z"></path>
<path fill="#000" d="M19.923 10.615h14.154c0.34 0 0.615 0.276 0.615 0.615v18.385c0 0.34-0.276 0.615-0.615 0.615h-14.154c-0.34 0-0.615-0.276-0.615-0.615v-18.385c0-0.34 0.276-0.615 0.615-0.615z"></path>
<path fill="#fff" d="M19.923 10.615h14.154c0.34 0 0.615 0.276 0.615 0.615v18.385c0 0.34-0.276 0.615-0.615 0.615h-14.154c-0.34 0-0.615-0.276-0.615-0.615v-18.385c0-0.34 0.276-0.615 0.615-0.615z"></path>
<path fill="#242a45" opacity="0.5" d="M24.822 13.308h7.332c0.127 0 0.231 0.103 0.231 0.231s-0.103 0.231-0.231 0.231h-7.332c-0.127 0-0.231-0.103-0.231-0.231s0.103-0.231 0.231-0.231z"></path>
<path fill="#5267df" d="M23.538 14.077c0 0.68-0.551 1.231-1.231 1.231s-1.231-0.551-1.231-1.231c0-0.68 0.551-1.231 1.231-1.231s1.231 0.551 1.231 1.231z"></path>
<path fill="#242a45" opacity="0.25" d="M24.822 14.385h3.695c0.127 0 0.231 0.103 0.231 0.231s-0.103 0.231-0.231 0.231h-3.695c-0.127 0-0.231-0.103-0.231-0.231s0.103-0.231 0.231-0.231z"></path>
<path fill="#fa5959" d="M23.538 18.385c0 0.68-0.551 1.231-1.231 1.231s-1.231-0.551-1.231-1.231c0-0.68 0.551-1.231 1.231-1.231s1.231 0.551 1.231 1.231z"></path>
<path fill="#242a45" opacity="0.5" d="M24.822 17.615h7.332c0.127 0 0.231 0.103 0.231 0.231s-0.103 0.231-0.231 0.231h-7.332c-0.127 0-0.231-0.103-0.231-0.231s0.103-0.231 0.231-0.231z"></path>
<path fill="#242a45" opacity="0.25" d="M24.822 18.692h3.695c0.127 0 0.231 0.103 0.231 0.231s-0.103 0.231-0.231 0.231h-3.695c-0.127 0-0.231-0.103-0.231-0.231s0.103-0.231 0.231-0.231z"></path>
<path fill="#5267df" d="M23.538 22.692c0 0.68-0.551 1.231-1.231 1.231s-1.231-0.551-1.231-1.231c0-0.68 0.551-1.231 1.231-1.231s1.231 0.551 1.231 1.231z"></path>
<path fill="#242a45" opacity="0.5" d="M24.822 21.923h7.332c0.127 0 0.231 0.103 0.231 0.231s-0.103 0.231-0.231 0.231h-7.332c-0.127 0-0.231-0.103-0.231-0.231s0.103-0.231 0.231-0.231z"></path>
<path fill="#242a45" opacity="0.25" d="M24.822 23h3.695c0.127 0 0.231 0.103 0.231 0.231s-0.103 0.231-0.231 0.231h-3.695c-0.127 0-0.231-0.103-0.231-0.231s0.103-0.231 0.231-0.231z"></path>
<path fill="#5267df" d="M23.538 27c0 0.68-0.551 1.231-1.231 1.231s-1.231-0.551-1.231-1.231c0-0.68 0.551-1.231 1.231-1.231s1.231 0.551 1.231 1.231z"></path>
<path fill="#242a45" opacity="0.5" d="M24.822 26.231h7.332c0.127 0 0.231 0.103 0.231 0.231s-0.103 0.231-0.231 0.231h-7.332c-0.127 0-0.231-0.103-0.231-0.231s0.103-0.231 0.231-0.231z"></path>
<path fill="#242a45" opacity="0.25" d="M24.822 27.308h3.695c0.127 0 0.231 0.103 0.231 0.231s-0.103 0.231-0.231 0.231h-3.695c-0.127 0-0.231-0.103-0.231-0.231s0.103-0.231 0.231-0.231z"></path>
<path fill="#fff" d="M2.692 6.538h17c0.34 0 0.615 0.276 0.615 0.615v1.385c0 0.34-0.276 0.615-0.615 0.615h-17c-0.34 0-0.615-0.276-0.615-0.615v-1.385c0-0.34 0.276-0.615 0.615-0.615z"></path>
<path fill="#495dcf" opacity="0.2" stroke="#5267df" stroke-linejoin="miter" stroke-linecap="butt" stroke-miterlimit="4" stroke-width="1.5385" d="M33.769 13c0 2.846-2.307 5.154-5.154 5.154s-5.154-2.307-5.154-5.154c0-2.846 2.307-5.154 5.154-5.154s5.154 2.307 5.154 5.154z"></path>
<path fill="none" stroke="#5267df" stroke-linejoin="round" stroke-linecap="round" stroke-miterlimit="4" stroke-width="1.5385" d="M32.231 16.692l3.769 3.769"></path>
</svg>
