<!-- Generated by IcoMoon.io -->
<svg version="1.1" xmlns="http://www.w3.org/2000/svg" width="37" height="32" viewBox="0 0 37 32">
<title>illustration-features-tab-3</title>
<path fill="#e8eaf6" d="M0.674 0h28.126c0.372 0 0.674 0.302 0.674 0.674v27.789c0 0.372-0.302 0.674-0.674 0.674h-28.126c-0.372 0-0.674-0.302-0.674-0.674v-27.789c0-0.372 0.302-0.674 0.674-0.674z"></path>
<path fill="#242a45" d="M-0.297 0.017h46.063v4.968h-46.063z"></path>
<path fill="#fff" opacity="0.245" d="M4.587 2.543c0 0.744-0.603 1.347-1.347 1.347s-1.347-0.603-1.347-1.347c0-0.744 0.603-1.347 1.347-1.347s1.347 0.603 1.347 1.347z"></path>
<path fill="#fff" opacity="0.75" d="M6.103 1.701h9.6c0.14 0 0.253 0.113 0.253 0.253s-0.113 0.253-0.253 0.253h-9.6c-0.14 0-0.253-0.113-0.253-0.253s0.113-0.253 0.253-0.253z"></path>
<path fill="#fff" opacity="0.25" d="M6.103 2.88h4.884c0.14 0 0.253 0.113 0.253 0.253s-0.113 0.253-0.253 0.253h-4.884c-0.14 0-0.253-0.113-0.253-0.253s0.113-0.253 0.253-0.253z"></path>
<path fill="#fff" d="M2.947 7.158h18.611c0.372 0 0.674 0.302 0.674 0.674v1.516c0 0.372-0.302 0.674-0.674 0.674h-18.611c-0.372 0-0.674-0.302-0.674-0.674v-1.516c0-0.372 0.302-0.674 0.674-0.674z"></path>
<path fill="#fff" d="M2.947 11.2h18.611c0.372 0 0.674 0.302 0.674 0.674v1.516c0 0.372-0.302 0.674-0.674 0.674h-18.611c-0.372 0-0.674-0.302-0.674-0.674v-1.516c0-0.372 0.302-0.674 0.674-0.674z"></path>
<path fill="#fff" d="M2.947 15.242h18.611c0.372 0 0.674 0.302 0.674 0.674v1.516c0 0.372-0.302 0.674-0.674 0.674h-18.611c-0.372 0-0.674-0.302-0.674-0.674v-1.516c0-0.372 0.302-0.674 0.674-0.674z"></path>
<path fill="#fff" d="M2.947 19.284h18.611c0.372 0 0.674 0.302 0.674 0.674v1.516c0 0.372-0.302 0.674-0.674 0.674h-18.611c-0.372 0-0.674-0.302-0.674-0.674v-1.516c0-0.372 0.302-0.674 0.674-0.674z"></path>
<path fill="#fff" d="M2.947 23.326h18.611c0.372 0 0.674 0.302 0.674 0.674v1.516c0 0.372-0.302 0.674-0.674 0.674h-18.611c-0.372 0-0.674-0.302-0.674-0.674v-1.516c0-0.372 0.302-0.674 0.674-0.674z"></path>
<path fill="#3a499e" d="M7.688 28.071c0.056 0.17 0.144 0.337 0.267 0.5 2.122 2.819 10.053 3.758 17.872 3.184 4.082-0.3 6.962-2.065 8.782-3.684 0.4-0.356 0.767-0.72 1.114-1.102l0.011-0.012c0.393-0.433 0.7-0.915 0.919-1.423 0.644-1.497 0.52-3.227-0.431-4.645-0.806-1.202-1.913-2.090-2.485-3.077-1.089-1.879 4.668-6.63 0.922-9.632-1.322-1.060-4.14-1.304-7.214-1.14-3.741 0.2-7.862 1.007-10.129 1.688-4.692 1.409-7.628 3.451-8.298 5.748s1.121 3.336 2.685 5.529c1.473 2.065-4.931 5.305-4.013 8.066z"></path>
<path fill="#306299" d="M15.617 14.642l1.43-0.242 0.216 1.33-1.768 0.522z"></path>
<path fill="#fa9e89" d="M17.095 14.494s1.11-0.029 2.274-0.515l-0.547 1.032-1.579 0.484-0.147-1.001z"></path>
<path fill="#fff" opacity="0.152" d="M23.658 11.553c0.683 3.382 12.295 8.563 12.854 14.123 0.599-1.495 0.484-3.222-0.402-4.638-0.751-1.2-1.781-2.087-2.313-3.073-1.014-1.876 4.346-6.62 0.858-9.618-1.231-1.058-3.854-1.302-6.715-1.138-0.871 0.199-4.898 1.291-4.282 4.344z"></path>
<path fill="#000" opacity="0.149" d="M7.426 27.453c-0.083 0.662 0.197 1.123 0.307 1.282 1.889 2.751 12.168 3.668 19.127 3.108 3.633-0.293 6.611-2.165 8.425-4.229l-27.859-0.161z"></path>
<path fill="#000" opacity="0.128" d="M30.852 27.774s0.849 0.051 0.836 0.308c-0.013 0.257-0.548 0.822-0.548 0.822l0.801-0.287 2.417-0.092-0.261 0.225s-1.948 0.090-2.035 0.158c-0.087 0.068-1.201 0.907-1.393 0.942s-12.353 0.019-12.353 0.019-1.251 0.050-1.46-0.336c-0.209-0.385-0.966-0.36-1.175-0.026s-0.18 1.567-0.18 1.567-0.572-0.149-0.603-0.163c-1.984-0.839-4.204-3.458-4.204-3.458l20.158 0.321z"></path>
<path fill="#162f44" d="M33.432 24.48l-1.217 4.14s-0.173 0.206-0.299 0.015l0.818-4.214 0.698 0.059zM35.105 24.337l0.601 2.791-0.286 0.325-0.809-3.035z"></path>
<path fill="#f4f2f9" d="M17.222 25.27l-0.591 3.357 0.601 0.088s1.345-3.313 1.459-4.108c0.115-0.795-2.117-3.976-2.117-3.976l-2.423 0.206c-0.064 0.692 0.905 1.997 1.771 3.012 0.682 0.8 1.301 1.42 1.301 1.42z"></path>
<path fill="#e0dfea" d="M17.189 25.14l-0.579 3.349 0.181 0.027 0.006 0.032 0.007-0.030c0.074-0.323 0.938-3.178 0.964-3.76 0.028-0.617-1.181-2.526-1.181-2.526l-0.671 1.492c0.668 0.798 1.273 1.416 1.273 1.416z"></path>
<path fill="#6397d9" d="M13.979 20.968l2.414-0.201 0.112-4.019s-0.589-2.096-1.235-2.096c-0.383 0-0.757 0.152-0.985 0.522-0.156 0.253-0.244 0.608-0.222 1.086 0.051 1.076-0.061 4.118-0.081 4.633-0.002 0.049-0.003 0.075-0.003 0.075z"></path>
<path fill="#8bbff7" d="M14.643 20.655l-0.045-4.785 0.56-1.139-0.654-0.079-0.23 0.27c-0.151 0.253-0.236 0.608-0.214 1.086 0.050 1.076-0.062 4.192-0.081 4.707l0.664-0.061z"></path>
<path fill="#306299" d="M14.653 16l1.77 3.368 0.046-1.515 0.037-1.229-1.476-0.624z"></path>
<path fill="#fff" d="M19.172 29.726h10.834c0.403 0 0.73-0.329 0.73-0.735v-18.572c0-0.406-0.327-0.735-0.73-0.735h-10.835c-0.403 0-0.73 0.329-0.73 0.735v18.572c0 0.406 0.327 0.735 0.73 0.735z"></path>
<path fill="#e4dcf1" d="M19.116 12.319v7.446c0 0.153 0.123 0.277 0.274 0.277h10.399c0.151 0 0.274-0.124 0.274-0.277v-7.446c0-0.153-0.123-0.277-0.274-0.277h-10.399c-0.151 0-0.274 0.124-0.274 0.277z"></path>
<path fill="#8e2b43" d="M24.518 14.063l0.131 0.1 0.278 1.21-0.006 0.199-0.44 0.007c-0.030 0-0.060-0.005-0.087-0.021-0.126-0.074-0.18-0.28-0.11-0.463 0.037-0.098 0.133-0.272 0.144-0.349 0.026-0.184 0.090-0.683 0.090-0.683z"></path>
<path fill="#4ec9b4" d="M22.232 20.295l4.717-0.018s0.546-2.581-0.338-3.576c-0.215-0.242-0.495-0.42-0.8-0.536-0.949-0.362-2.143-0.123-2.399 0.671-0.338 1.049-1.179 3.459-1.179 3.459z"></path>
<path fill="#fa9e89" d="M25.782 16.21s-0.187 0.507-0.598 0.614c-0.412 0.107-0.883-0.271-0.845-0.712 0 0 0.394-0.058 0.459-0.249 0.078-0.232 0.026-0.24 0.026-0.24s-0.154-0.294-0.206-0.507c-0.051-0.214 0.026-1.042 0.386-1.122 0.228-0.051 0.592 0.027 0.849 0.401 0 0-0.129 0.721-0.309 1.068s-0.27 0.507 0.238 0.748z"></path>
<path fill="#f4f2f9" opacity="0.184" d="M19.382 9.77l11.186 15.682v3.557c0 0.396-0.312 0.717-0.696 0.717h-10.119c-0.445 0-0.806-0.372-0.806-0.831v-18.805c0-0.247 0.196-0.333 0.435-0.321z"></path>
<path fill="#4ec9b4" d="M22.737 18.732l-0.588-2.564-0.928 0.153 0.9 3.721z"></path>
<path fill="#fa9e89" d="M21.962 16.096l-0.051-0.262s0.152-0.1 0.126-0.249c-0.025-0.149 0.025-0.498 0.025-0.498s-0.081-0.054-0.133 0.044c-0.037 0.070-0.095 0.23-0.095 0.23s-0.193-0.519-0.238-0.656c-0.019-0.058-0.038-0.149-0.082-0.135-0.023 0.007-0.015 0.060-0.011 0.112 0.012 0.155 0.078 0.403 0.078 0.403l-0.034 0.020-0.14-0.444c-0.006-0.022-0.016-0.054-0.039-0.056-0.020-0.002-0.040 0.009-0.040 0.059 0 0.1 0.107 0.512 0.107 0.512l-0.027 0.018-0.163-0.36c-0.011-0.027-0.052-0.025-0.059 0.004-0.005 0.023-0.004 0.055 0.015 0.1 0.051 0.125 0.101 0.324 0.101 0.324l-0.013 0.015-0.088-0.183c-0.016-0.029-0.055-0.048-0.066-0.017-0.016 0.044 0.123 0.419 0.123 0.444s0.095 0.364 0.196 0.389 0.107 0.26 0.107 0.26l0.398-0.073z"></path>
<path fill="#ffdedd" d="M27.819 22.232h1.878c0.109 0 0.198-0.090 0.198-0.202v-0.27c0-0.111-0.089-0.202-0.198-0.202h-1.878c-0.109 0-0.198 0.090-0.198 0.202v0.27c0 0.111 0.089 0.202 0.198 0.202zM25.124 22.232h1.878c0.109 0 0.198-0.090 0.198-0.202v-0.27c0-0.111-0.089-0.202-0.198-0.202h-1.878c-0.109 0-0.198 0.090-0.198 0.202v0.27c0 0.111 0.089 0.202 0.198 0.202zM22.261 22.232h1.878c0.109 0 0.198-0.090 0.198-0.202v-0.27c0-0.111-0.089-0.202-0.198-0.202h-1.878c-0.109 0-0.198 0.090-0.198 0.202v0.27c0 0.111 0.089 0.202 0.198 0.202zM19.567 22.232h1.878c0.109 0 0.198-0.090 0.198-0.202v-0.27c0-0.111-0.089-0.202-0.198-0.202h-1.878c-0.109 0-0.198 0.090-0.198 0.202v0.27c0 0.111 0.089 0.202 0.198 0.202z"></path>
<path fill="#f4f2f9" d="M19.751 23.832h9.929c0.118 0 0.214-0.091 0.214-0.203v-0.268c0-0.112-0.096-0.203-0.214-0.203h-9.929c-0.118 0-0.214 0.091-0.214 0.203v0.268c0 0.112 0.096 0.203 0.214 0.203zM29.68 25.179c0.118 0 0.214-0.091 0.214-0.203v-0.268c0-0.112-0.096-0.203-0.214-0.203h-9.929c-0.118 0-0.214 0.091-0.214 0.203v0.268c0 0.112 0.096 0.203 0.214 0.203h9.929zM19.751 26.526h9.929c0.118 0 0.214-0.091 0.214-0.203v-0.268c0-0.112-0.096-0.203-0.214-0.203h-9.929c-0.118 0-0.214 0.091-0.214 0.203v0.268c0 0.112 0.096 0.203 0.214 0.203zM19.751 27.621h9.929c0.118 0 0.214-0.091 0.214-0.203v-0.268c0-0.112-0.096-0.203-0.214-0.203h-9.929c-0.118 0-0.214 0.091-0.214 0.203v0.268c0 0.112 0.096 0.203 0.214 0.203z"></path>
<path fill="#fc516b" d="M26.040 13.753s-0.531-0.745-1.532-0.314c-1.001 0.431 0.086 1.137 0.086 1.137s0.021-0.275 0.18-0.353l-0.013 0.244 0.561 0.098 0.090-0.235 0.058 0.268 0.282 0.104s-0.231 0.81-0.366 0.928c0 0-0.058 0.189-0.038 0.229s0.873 0.255 0.982 0.059-0.116-0.471-0.186-0.654c-0.071-0.183 0.128-1.155-0.103-1.512z"></path>
<path fill="#e4dcf1" d="M28.493 11.705h1.456c0.109 0 0.198-0.113 0.198-0.253s-0.089-0.253-0.198-0.253h-1.456c-0.109 0-0.198 0.113-0.198 0.253s0.089 0.253 0.198 0.253z"></path>
<path fill="#44ad99" d="M26.274 17.768s-0.224 1.624-0.481 2.274h-1.352s-0.223-0.685 0.846-0.909c0.744-0.156 0.987-1.364 0.987-1.364zM23.612 17.347s-0.275 0.842-0.223 1.095c0.051 0.253 0.274 0.438 0.274 0.606s-0.137 0.808-0.137 0.808l-0.789 0.017s0.131-0.022 0.429-0.257c0.455-0.358 0.064-1.147 0.161-1.596 0.051-0.235 0.285-0.674 0.285-0.674zM22.737 18.676s-0.018 0.706-0.161 0.597c-0.143-0.109-0.054-1.158-0.179-1.52s-0.502-1.521-0.502-1.521l0.323-0.063 0.52 2.507z"></path>
<path fill="#fa9e89" d="M20.6 15.451s-0.133 0.058-0.295 0.257c-0.054 0.066-0.339 0.17-0.407 0.252-0.981 1.181-2.29 2.092-3.13 1.729-1.072-0.463-1.274-0.894-1.274-0.894l0.709-0.957s0.814 1.243 1.468 0.904c0.654-0.339 1.945-1.226 1.945-1.226l0.034-0.544s0.075-0.020 0.111 0.084c0.036 0.104 0.038 0.194 0.038 0.194l0.509-0.591s0.098-0.030 0.068 0.065c-0.030 0.095-0.21 0.368-0.21 0.368s-0.019 0.052 0.020 0.028c0.045-0.028 0.401-0.429 0.401-0.429s0.082-0.005 0.049 0.073c-0.026 0.060-0.241 0.344-0.314 0.451-0.022 0.032 0.024 0.020 0.024 0.020l0.294-0.25c0.040-0.027 0.081-0.018 0.073 0.031-0.006 0.039-0.086 0.128-0.134 0.163-0.119 0.088-0.202 0.249-0.202 0.249l0.256-0.093s0.050 0.044-0.035 0.118zM14.568 12.336l0.324 2.385 1.065 0.184s-0.054-0.056-0.116-0.131c-0.063-0.076-0.134-0.173-0.165-0.25-0.072-0.177-0.072-0.342-0.072-0.342s0.472 0.053 0.545-0.219c0.073-0.272-0.096-1.54-0.096-1.54s-0.211-0.797-1.485-0.088z"></path>
<path fill="#261f27" d="M15.462 12.363s0.525 0.397 1.029 0.059c0 0-0.319-0.029-0.419-0.191 0 0 0.199 0.051 0.433-0.279 0 0-0.412 0.059-0.553-0.066s-0.866-0.323-1.299-0.022c-0.433 0.301-0.426 0.522-0.426 0.522s-0.255 0.095-0.248 0.242c0.007 0.147 0.632 1.351 0.632 1.351l0.135-0.536s-0.106 0.032-0.17-0.218c-0.064-0.25 0.213-0.142 0.241-0.091s0.213-0.353 0.213-0.353l-0.028-0.235s-0.092-0.301 0.461-0.184z"></path>
<path fill="#fff" d="M14.466 23.527c0.302 1.22-0.257 6.098-0.257 6.098l0.547 0.102c2.203-5.054 1.699-9.179 1.699-9.179l-2.477 0.203s0.006-0.103 0.009-0.079c0.028 0.253 0.203 1.742 0.478 2.855z"></path>
<path fill="#6397d9" d="M17.202 28.385l0.636 0.493s0.251-0.030 0.299 0.086c0.048 0.116 0.053 0.247 0.053 0.247l-0.665 0.010-1.104-0.438 0.173-0.488 0.607 0.091zM14.691 29.839s0.225 0.364 0.452 0.661c0.076 0.1 0.262 0.143 0.335 0.387 0.062 0.21-0.062 0.355-0.062 0.355s-0.418-0.075-0.709-0.333c-0.291-0.258-0.727-0.753-0.727-0.753l0.119-0.43 0.592 0.113z"></path>
<path fill="#224a7d" d="M31.495 23.747c0 0.326 1.093 0.589 2.442 0.589s2.442-0.264 2.442-0.589-1.093-0.589-2.442-0.589-2.442 0.264-2.442 0.589z"></path>
<path fill="#6397d9" d="M31.495 23.663c0 0.326 1.093 0.589 2.442 0.589s2.442-0.264 2.442-0.589-1.093-0.589-2.442-0.589-2.442 0.264-2.442 0.589z"></path>
<path fill="#162f44" d="M33.263 23.326c0 0.14 0.452 0.253 1.011 0.253s1.011-0.113 1.011-0.253-0.452-0.253-1.011-0.253-1.011 0.113-1.011 0.253zM36.379 23.579v0.336s-0.006 0.207-0.421 0.338l0.099-0.364s0.292-0.126 0.322-0.31z"></path>
<path fill="#8cc5f2" d="M31.495 23.579v0.344s-0.033 0.172 0.421 0.33l-0.139-0.401s-0.241-0.108-0.281-0.272z"></path>
<path fill="#fc516b" d="M33.095 22.487l0.166 0.648c0.041 0.161 0.204 0.276 0.392 0.276h0.356c0.133 0 0.255-0.058 0.328-0.149 0.025-0.031 0.045-0.066 0.058-0.105l0.001-0.002 0.144-0.447 0.071-0.222-1.516 0.003z"></path>
<path fill="#9b293f" d="M33.095 22.4c0 0.046 0.339 0.084 0.758 0.084s0.758-0.038 0.758-0.084-0.339-0.084-0.758-0.084-0.758 0.038-0.758 0.084z"></path>
<path fill="#f995a9" d="M34.139 23.297c-0.030 0.012-0.058 0.021-0.084 0.029l0.178-0.027c0.024-0.032 0.043-0.070 0.055-0.111l0.001-0.003 0.136-0.472c0.007-0.023 0.018-0.059 0.018-0.060 0 0-0.355 0.105-0.674 0.069 0.104 0.014 0.363 0.035 0.519 0.027 0.001-0 0.002-0 0.004-0 0.034 0 0.061 0.027 0.061 0.061 0 0.003-0 0.005-0.001 0.008l0-0c-0.020 0.14-0.076 0.427-0.213 0.48z"></path>
<path fill="#51a595" d="M33.768 22.223l0.057 0.26 0.042 0.001s0.002-0.261 0.309-0.421c0.307-0.16 0.263-0.758 0.263-0.758l-0 0.001c-0.007 0.015-0.125 0.261-0.215 0.277-0.092 0.017-0.149 0.164-0.149 0.164s-0.044 0.063-0.097 0.051c-0.053-0.013-0.105 0.126-0.105 0.126l-0.017 0.148-0.088 0.152z"></path>
<path fill="#4ec9b4" d="M34.189 22.736s0.059-1.974-0.977-2.525c0 0-0.295 0.114 0.051 0.587s0.067 0.814 0.219 0.937c0.152 0.123 0.371 0.201 0.337 0.359s0.008 0.315 0.076 0.333c0.067 0.017 0.219 0.11 0.243 0.311l0.052-0.001z"></path>
<path fill="#41877a" d="M34.189 22.383l0.003 0.1 0.045 0.001s0.003-0.261 0.336-0.421c0.334-0.16 0.286-0.758 0.286-0.758l-0 0.001-0.028 0.090c0 0.543-0.314 0.656-0.439 0.728s-0.204 0.259-0.204 0.259z"></path>
<path fill="#306299" d="M15.679 14.914s-0.889 0.014-0.968-0.093l-0.058 0.16s0.704 0.384 1.179 0.221l-0.153-0.288z"></path>
<path fill="#8cc5f2" d="M16.926 16.077l-1.060 1.186s-1.417-1.27-1.381-1.668c0.035-0.398 0.554-1.222 1.35-0.465 0.775 0.737 1.091 0.947 1.091 0.947z"></path>
<path fill="#f4f2f9" d="M14.195 29.697l0.216 0.029s1.013-3.576 0.68-6.219c-0.1-0.794-0.45-2.792-0.45-2.792l-0.662 0.062c0.027 0.255 0.198 1.672 0.457 2.79 0.284 1.226-0.241 6.129-0.241 6.129z"></path>
<path fill="#e6846f" d="M15.348 14.784c0.125 0.027 0.194 0.036 0.231 0.037-0.059-0.081-0.125-0.184-0.154-0.266-0.067-0.189-0.067-0.365-0.067-0.365s-0.25-0.066-0.276-0.035c-0.026 0.031 0 0.57 0.266 0.628z"></path>
<path fill="#cec3e2" d="M27.621 15.074c0 0.884 0.678 1.6 1.514 1.6 0.35 0 0.672-0.126 0.929-0.337v-2.527c-0.256-0.211-0.579-0.337-0.929-0.337-0.836 0-1.514 0.716-1.514 1.6z"></path>
<path fill="#c3b8d8" d="M27.621 15.116c0 0.86 0.631 1.558 1.409 1.558 0.326 0 0.626-0.122 0.864-0.328v-2.461c-0.239-0.205-0.539-0.328-0.864-0.328-0.778 0-1.409 0.698-1.409 1.558z"></path>
<path fill="#44ad99" d="M25.432 16.513s0.167-0.093 0.194-0.11c0.026-0.017 0.37 0.076 0.827 0.549s0.061 0.869 0.255 1.123c0.194 0.253 0.009 0.785-0.088 1.148s0 0.819 0 0.819l0.005 0 0.153-0s0.554-2.431-0.343-3.368c-0.219-0.228-0.503-0.396-0.812-0.505l-0.191 0.345z"></path>
</svg>
