<!-- Generated by IcoMoon.io -->
<svg version="1.1" xmlns="http://www.w3.org/2000/svg" width="45" height="32" viewBox="0 0 45 32">
<title>illustration-hero</title>
<path fill="#000" d="M4.498 0.652h36.12c0.986 0 1.785 0.799 1.785 1.785v22.867c0 0.986-0.799 1.785-1.785 1.785h-36.12c-0.986 0-1.785-0.799-1.785-1.785v-22.867c0-0.986 0.799-1.785 1.785-1.785z"></path>
<path fill="#777" d="M4.498 0.652h36.12c0.986 0 1.785 0.799 1.785 1.785v22.867c0 0.986-0.799 1.785-1.785 1.785h-36.12c-0.986 0-1.785-0.799-1.785-1.785v-22.867c0-0.986 0.799-1.785 1.785-1.785z"></path>
<path fill="#000" d="M4.567 0.79h35.999c0.948 0 1.717 0.769 1.717 1.717v22.789c0 0.948-0.769 1.717-1.717 1.717h-35.999c-0.948 0-1.717-0.769-1.717-1.717v-22.789c0-0.948 0.769-1.717 1.717-1.717z"></path>
<path fill="#2a2a2a" opacity="0.1" d="M6.766 1.772h31.688c0.19 0 0.343 0.154 0.343 0.343v23.606c0 0.19-0.154 0.343-0.343 0.343h-31.688c-0.19 0-0.343-0.154-0.343-0.343v-23.606c0-0.19 0.154-0.343 0.343-0.343z"></path>
<path fill="#e8eaf6" d="M4.706 1.978h35.708c0.303 0 0.549 0.246 0.549 0.549v22.661c0 0.303-0.246 0.549-0.549 0.549h-35.708c-0.303 0-0.549-0.246-0.549-0.549v-22.661c0-0.303 0.246-0.549 0.549-0.549z"></path>
<path fill="#5267df" d="M3.914 1.991h37.562v4.051h-37.562z"></path>
<path fill="#fff" opacity="0.245" d="M7.897 4.051c0 0.607-0.492 1.099-1.099 1.099s-1.099-0.492-1.099-1.099c0-0.607 0.492-1.099 1.099-1.099s1.099 0.492 1.099 1.099z"></path>
<path fill="#fff" opacity="0.104" d="M39.554 4.051c0 0.607-0.492 1.099-1.099 1.099s-1.099-0.492-1.099-1.099c0-0.607 0.492-1.099 1.099-1.099s1.099 0.492 1.099 1.099z"></path>
<path fill="#fff" opacity="0.75" d="M9.133 3.365h7.828c0.114 0 0.206 0.092 0.206 0.206s-0.092 0.206-0.206 0.206h-7.828c-0.114 0-0.206-0.092-0.206-0.206s0.092-0.206 0.206-0.206z"></path>
<path fill="#fff" opacity="0.25" d="M9.133 4.326h3.983c0.114 0 0.206 0.092 0.206 0.206s-0.092 0.206-0.206 0.206h-3.983c-0.114 0-0.206-0.092-0.206-0.206s0.092-0.206 0.206-0.206z"></path>
<path fill="#fff" d="M8.62 8.364h16.824c0.303 0 0.549 0.246 0.549 0.549v20.601c0 0.303-0.246 0.549-0.549 0.549h-16.824c-0.303 0-0.549-0.246-0.549-0.549v-20.601c0-0.303 0.246-0.549 0.549-0.549z"></path>
<path fill="#fff" d="M28.878 8.364h7.691c0.303 0 0.549 0.246 0.549 0.549v20.601c0 0.303-0.246 0.549-0.549 0.549h-7.691c-0.303 0-0.549-0.246-0.549-0.549v-20.601c0-0.303 0.246-0.549 0.549-0.549z"></path>
<path fill="#242a45" opacity="0.5" d="M13.665 10.987h7.828c0.114 0 0.206 0.092 0.206 0.206s-0.092 0.206-0.206 0.206h-7.828c-0.114 0-0.206-0.092-0.206-0.206s0.092-0.206 0.206-0.206z"></path>
<path fill="#f98e5d" d="M12.429 11.674c0 0.607-0.492 1.099-1.099 1.099s-1.099-0.492-1.099-1.099c0-0.607 0.492-1.099 1.099-1.099s1.099 0.492 1.099 1.099z"></path>
<path fill="#242a45" opacity="0.25" d="M29.94 9.888h5.631c0.114 0 0.206 0.092 0.206 0.206s-0.092 0.206-0.206 0.206h-5.631c-0.114 0-0.206-0.092-0.206-0.206s0.092-0.206 0.206-0.206z"></path>
<path fill="#242a45" opacity="0.25" d="M29.94 11.262h5.631c0.114 0 0.206 0.092 0.206 0.206s-0.092 0.206-0.206 0.206h-5.631c-0.114 0-0.206-0.092-0.206-0.206s0.092-0.206 0.206-0.206z"></path>
<path fill="#242a45" opacity="0.25" d="M29.94 12.635h5.631c0.114 0 0.206 0.092 0.206 0.206s-0.092 0.206-0.206 0.206h-5.631c-0.114 0-0.206-0.092-0.206-0.206s0.092-0.206 0.206-0.206z"></path>
<path fill="#242a45" opacity="0.25" d="M29.94 14.009h5.631c0.114 0 0.206 0.092 0.206 0.206s-0.092 0.206-0.206 0.206h-5.631c-0.114 0-0.206-0.092-0.206-0.206s0.092-0.206 0.206-0.206z"></path>
<path fill="#242a45" opacity="0.25" d="M29.94 16.343h5.631c0.114 0 0.206 0.092 0.206 0.206s-0.092 0.206-0.206 0.206h-5.631c-0.114 0-0.206-0.092-0.206-0.206s0.092-0.206 0.206-0.206z"></path>
<path fill="#242a45" opacity="0.25" d="M29.94 17.717h5.631c0.114 0 0.206 0.092 0.206 0.206s-0.092 0.206-0.206 0.206h-5.631c-0.114 0-0.206-0.092-0.206-0.206s0.092-0.206 0.206-0.206z"></path>
<path fill="#242a45" opacity="0.25" d="M29.94 19.090h5.631c0.114 0 0.206 0.092 0.206 0.206s-0.092 0.206-0.206 0.206h-5.631c-0.114 0-0.206-0.092-0.206-0.206s0.092-0.206 0.206-0.206z"></path>
<path fill="#242a45" opacity="0.25" d="M13.665 11.948h3.983c0.114 0 0.206 0.092 0.206 0.206s-0.092 0.206-0.206 0.206h-3.983c-0.114 0-0.206-0.092-0.206-0.206s0.092-0.206 0.206-0.206z"></path>
<path fill="#6ac6d6" d="M12.429 15.519c0 0.607-0.492 1.099-1.099 1.099s-1.099-0.492-1.099-1.099c0-0.607 0.492-1.099 1.099-1.099s1.099 0.492 1.099 1.099z"></path>
<path fill="#242a45" opacity="0.5" d="M13.665 14.833h7.828c0.114 0 0.206 0.092 0.206 0.206s-0.092 0.206-0.206 0.206h-7.828c-0.114 0-0.206-0.092-0.206-0.206s0.092-0.206 0.206-0.206z"></path>
<path fill="#242a45" opacity="0.25" d="M13.665 15.794h3.983c0.114 0 0.206 0.092 0.206 0.206s-0.092 0.206-0.206 0.206h-3.983c-0.114 0-0.206-0.092-0.206-0.206s0.092-0.206 0.206-0.206z"></path>
<path fill="#a47ed4" d="M12.429 19.365c0 0.607-0.492 1.099-1.099 1.099s-1.099-0.492-1.099-1.099c0-0.607 0.492-1.099 1.099-1.099s1.099 0.492 1.099 1.099z"></path>
<path fill="#242a45" opacity="0.5" d="M13.665 18.678h7.828c0.114 0 0.206 0.092 0.206 0.206s-0.092 0.206-0.206 0.206h-7.828c-0.114 0-0.206-0.092-0.206-0.206s0.092-0.206 0.206-0.206z"></path>
<path fill="#242a45" opacity="0.25" d="M13.665 19.64h3.983c0.114 0 0.206 0.092 0.206 0.206s-0.092 0.206-0.206 0.206h-3.983c-0.114 0-0.206-0.092-0.206-0.206s0.092-0.206 0.206-0.206z"></path>
<path fill="#ec7878" d="M12.429 23.21c0 0.607-0.492 1.099-1.099 1.099s-1.099-0.492-1.099-1.099c0-0.607 0.492-1.099 1.099-1.099s1.099 0.492 1.099 1.099z"></path>
<path fill="#242a45" opacity="0.5" d="M13.665 22.524h7.828c0.114 0 0.206 0.092 0.206 0.206s-0.092 0.206-0.206 0.206h-7.828c-0.114 0-0.206-0.092-0.206-0.206s0.092-0.206 0.206-0.206z"></path>
<path fill="#242a45" opacity="0.25" d="M13.665 23.485h3.983c0.114 0 0.206 0.092 0.206 0.206s-0.092 0.206-0.206 0.206h-3.983c-0.114 0-0.206-0.092-0.206-0.206s0.092-0.206 0.206-0.206z"></path>
</svg>
