<!-- Generated by IcoMoon.io -->
<svg version="1.1" xmlns="http://www.w3.org/2000/svg" width="50" height="32" viewBox="0 0 50 32">
<title>illustration-features-tab-1</title>
<path fill="#e8eaf6" d="M0.74 0h48.093c0.409 0 0.74 0.331 0.74 0.74v30.52c0 0.409-0.331 0.74-0.74 0.74h-48.093c-0.409 0-0.74-0.331-0.74-0.74v-30.52c0-0.409 0.331-0.74 0.74-0.74z"></path>
<path fill="#242a45" d="M-0.326 0.018h50.59v5.457h-50.59z"></path>
<path fill="#fff" opacity="0.245" d="M5.038 2.793c0 0.817-0.662 1.48-1.48 1.48s-1.48-0.663-1.48-1.48c0-0.817 0.663-1.48 1.48-1.48s1.48 0.662 1.48 1.48z"></path>
<path fill="#fff" opacity="0.104" d="M47.674 2.793c0 0.817-0.663 1.48-1.48 1.48s-1.48-0.663-1.48-1.48c0-0.817 0.663-1.48 1.48-1.48s1.48 0.662 1.48 1.48z"></path>
<path fill="#fff" opacity="0.75" d="M6.702 1.868h10.543c0.153 0 0.277 0.124 0.277 0.277s-0.124 0.277-0.277 0.277h-10.543c-0.153 0-0.277-0.124-0.277-0.277s0.124-0.277 0.277-0.277z"></path>
<path fill="#fff" opacity="0.25" d="M6.702 3.163h5.364c0.153 0 0.277 0.124 0.277 0.277s-0.124 0.277-0.277 0.277h-5.364c-0.153 0-0.277-0.124-0.277-0.277s0.124-0.277 0.277-0.277z"></path>
<path fill="#fff" d="M6.012 8.601h22.659c0.409 0 0.74 0.331 0.74 0.74v27.746c0 0.409-0.331 0.74-0.74 0.74h-22.659c-0.409 0-0.74-0.331-0.74-0.74v-27.746c0-0.409 0.331-0.74 0.74-0.74z"></path>
<path fill="#fff" d="M33.295 8.601h10.358c0.409 0 0.74 0.331 0.74 0.74v27.746c0 0.409-0.331 0.74-0.74 0.74h-10.358c-0.409 0-0.74-0.331-0.74-0.74v-27.746c0-0.409 0.331-0.74 0.74-0.74z"></path>
<path fill="#242a45" opacity="0.5" d="M12.806 12.134h10.543c0.153 0 0.277 0.124 0.277 0.277s-0.124 0.277-0.277 0.277h-10.543c-0.153 0-0.277-0.124-0.277-0.277s0.124-0.277 0.277-0.277z"></path>
<path fill="#f98e5d" d="M11.142 13.059c0 0.817-0.662 1.48-1.48 1.48s-1.48-0.662-1.48-1.48c0-0.817 0.662-1.48 1.48-1.48s1.48 0.662 1.48 1.48z"></path>
<path fill="#242a45" opacity="0.25" d="M34.726 10.654h7.584c0.153 0 0.277 0.124 0.277 0.277s-0.124 0.277-0.277 0.277h-7.584c-0.153 0-0.277-0.124-0.277-0.277s0.124-0.277 0.277-0.277z"></path>
<path fill="#242a45" opacity="0.25" d="M34.726 12.504h7.584c0.153 0 0.277 0.124 0.277 0.277s-0.124 0.277-0.277 0.277h-7.584c-0.153 0-0.277-0.124-0.277-0.277s0.124-0.277 0.277-0.277z"></path>
<path fill="#242a45" opacity="0.25" d="M34.726 14.353h7.584c0.153 0 0.277 0.124 0.277 0.277s-0.124 0.277-0.277 0.277h-7.584c-0.153 0-0.277-0.124-0.277-0.277s0.124-0.277 0.277-0.277z"></path>
<path fill="#242a45" opacity="0.25" d="M34.726 16.203h7.584c0.153 0 0.277 0.124 0.277 0.277s-0.124 0.277-0.277 0.277h-7.584c-0.153 0-0.277-0.124-0.277-0.277s0.124-0.277 0.277-0.277z"></path>
<path fill="#242a45" opacity="0.25" d="M34.726 19.348h7.584c0.153 0 0.277 0.124 0.277 0.277s-0.124 0.277-0.277 0.277h-7.584c-0.153 0-0.277-0.124-0.277-0.277s0.124-0.277 0.277-0.277z"></path>
<path fill="#242a45" opacity="0.25" d="M34.726 21.197h7.584c0.153 0 0.277 0.124 0.277 0.277s-0.124 0.277-0.277 0.277h-7.584c-0.153 0-0.277-0.124-0.277-0.277s0.124-0.277 0.277-0.277z"></path>
<path fill="#242a45" opacity="0.25" d="M34.726 23.047h7.584c0.153 0 0.277 0.124 0.277 0.277s-0.124 0.277-0.277 0.277h-7.584c-0.153 0-0.277-0.124-0.277-0.277s0.124-0.277 0.277-0.277z"></path>
<path fill="#242a45" opacity="0.25" d="M12.806 13.429h5.364c0.153 0 0.277 0.124 0.277 0.277s-0.124 0.277-0.277 0.277h-5.364c-0.153 0-0.277-0.124-0.277-0.277s0.124-0.277 0.277-0.277z"></path>
<path fill="#6ac6d6" d="M11.142 18.238c0 0.817-0.662 1.48-1.48 1.48s-1.48-0.663-1.48-1.48c0-0.817 0.662-1.48 1.48-1.48s1.48 0.663 1.48 1.48z"></path>
<path fill="#242a45" opacity="0.5" d="M12.806 17.313h10.543c0.153 0 0.277 0.124 0.277 0.277s-0.124 0.277-0.277 0.277h-10.543c-0.153 0-0.277-0.124-0.277-0.277s0.124-0.277 0.277-0.277z"></path>
<path fill="#242a45" opacity="0.25" d="M12.806 18.608h5.364c0.153 0 0.277 0.124 0.277 0.277s-0.124 0.277-0.277 0.277h-5.364c-0.153 0-0.277-0.124-0.277-0.277s0.124-0.277 0.277-0.277z"></path>
<path fill="#a47ed4" d="M11.142 23.417c0 0.817-0.662 1.48-1.48 1.48s-1.48-0.663-1.48-1.48c0-0.817 0.662-1.48 1.48-1.48s1.48 0.663 1.48 1.48z"></path>
<path fill="#242a45" opacity="0.5" d="M12.806 22.492h10.543c0.153 0 0.277 0.124 0.277 0.277s-0.124 0.277-0.277 0.277h-10.543c-0.153 0-0.277-0.124-0.277-0.277s0.124-0.277 0.277-0.277z"></path>
<path fill="#242a45" opacity="0.25" d="M12.806 23.787h5.364c0.153 0 0.277 0.124 0.277 0.277s-0.124 0.277-0.277 0.277h-5.364c-0.153 0-0.277-0.124-0.277-0.277s0.124-0.277 0.277-0.277z"></path>
<path fill="#ec7878" d="M11.142 28.596c0 0.817-0.662 1.48-1.48 1.48s-1.48-0.663-1.48-1.48c0-0.817 0.662-1.48 1.48-1.48s1.48 0.663 1.48 1.48z"></path>
<path fill="#242a45" opacity="0.5" d="M12.806 27.671h10.543c0.153 0 0.277 0.124 0.277 0.277s-0.124 0.277-0.277 0.277h-10.543c-0.153 0-0.277-0.124-0.277-0.277s0.124-0.277 0.277-0.277z"></path>
<path fill="#242a45" opacity="0.25" d="M12.806 28.966h5.364c0.153 0 0.277 0.124 0.277 0.277s-0.124 0.277-0.277 0.277h-5.364c-0.153 0-0.277-0.124-0.277-0.277s0.124-0.277 0.277-0.277z"></path>
</svg>
