<!-- Generated by IcoMoon.io -->
<svg version="1.1" xmlns="http://www.w3.org/2000/svg" width="34" height="32" viewBox="0 0 34 32">
<title>logo-firefox</title>
<path fill="#ff9800" d="M33.6 16c0 9.236-7.524 16-16.8 16s-16.8-7.492-16.8-16.728c0-2.894 0.746-5.629 2.045-8 0.017-0.046 0.042-0.085 0.074-0.117l-0 0c-0.731-1.089-1.052-3.853 0.802-5.702 0 0.772 0.468 2.095 0.993 3.084 0.424 0.786 0.876 1.353 1.197 1.28 0.731-0.174 3.286-0.174 3.652 0 0.601-0.77 2.062-2.909 4.385-2.909-1.3 1.294-5.025 5.819 1.461 5.819h1.462l-4.385 2.908s0.498 0.96 0 1.455c-0.554-0.554-2.921 0.596-2.921 2.181s1.695 3.636 5.114 3.636c3.419 0 2.556-1.455 4.383-1.455s2.19 1.455 2.19 1.455c-2.514 0-4.339 2.909-7.304 2.909 1.461 1.076 2.426 1.455 4.383 1.455 4.836 0 8.765-3.912 8.765-8.728 0-1.949-0.643-3.739-1.724-5.192 1.95 1.459 3.264 3.675 3.505 6.204l0.003 0.035c0.26-0.969 0.409-2.081 0.409-3.228v-0c0-4.379-1.869-10.168-5.114-12.364 4.675 1.395 10.225 5.909 10.225 14.545v1.455z"></path>
</svg>
