<!-- Generated by IcoMoon.io -->
<svg version="1.1" xmlns="http://www.w3.org/2000/svg" width="33" height="32" viewBox="0 0 33 32">
<title>logo-chrome</title>
<path fill="#e16b5a" d="M16.246 0.003s9.603-0.424 14.693 9.040h-15.509s-2.929-0.095-5.426 3.39c-0.72 1.46-1.488 2.966-0.624 5.932-1.248-2.071-6.627-11.252-6.627-11.252s3.794-6.733 13.493-7.11z"></path>
<path fill="#ffd464" d="M30.439 24.030s-4.428 8.366-15.332 7.954c1.345-2.282 7.757-13.169 7.757-13.169s1.548-2.44-0.28-6.303c-0.929-1.341-3.744-2.748-6.796-3.497 2.454-0.024 15.12 0.002 15.12 0.002s4.049 6.589-0.469 15.013z"></path>
<path fill="#74b340" d="M2.121 24.094s-5.174-7.944 0.641-16.997l7.752 13.172s1.38 2.534 5.706 2.913c1.649-0.118 3.364-0.218 5.552-2.434-1.206 2.096-6.628 11.252-6.628 11.252s-7.843 0.143-13.024-7.906z"></path>
<path fill="#fff" d="M23.587 16.13c0 4.004-3.304 7.25-7.38 7.25s-7.38-3.246-7.38-7.25c0-4.004 3.304-7.25 7.38-7.25s7.38 3.246 7.38 7.25z"></path>
<path fill="#2995cc" d="M22.058 16.13c0 3.176-2.621 5.75-5.853 5.75s-5.853-2.574-5.853-5.75c0-3.176 2.621-5.75 5.853-5.75s5.853 2.574 5.853 5.75z"></path>
<path fill="#268cbf" d="M16.206 10.381c-0.116 0-0.232 0.004-0.346 0.011 3.071 0.176 5.507 2.678 5.507 5.739s-2.436 5.564-5.507 5.74c0.115 0.006 0.23 0.011 0.347 0.011 3.232 0 5.853-2.575 5.853-5.75s-2.621-5.75-5.853-5.75z"></path>
</svg>
